<svg width="48" height="48" viewBox="0 0 18 18" fill="none" xmlns="http://www.w3.org/2000/svg">
  <g stroke-width="0"/>
  <g stroke-linecap="round" stroke-linejoin="round"/>
  <path fill-rule="evenodd" clip-rule="evenodd" d="M1.5 9a7.5 7.5 0 1 1 15 0 7.5 7.5 0 0 1-15 0ZM9 4.5A2.25 2.25 0 1 0 9 9a2.25 2.25 0 0 0 0-4.5Zm4.421 8.585-.671-.335c.671.335.67.337.67.337v.001l-.002.002-.003.005-.006.012a1.145 1.145 0 0 1-.068.112 2.474 2.474 0 0 1-.18.245 3.476 3.476 0 0 1-.746.66C11.717 14.589 10.631 15 9 15c-2.764 0-3.926-1.177-4.3-1.716a.962.962 0 0 1-.065-.982A3.26 3.26 0 0 1 7.552 10.5h2.771c1.313 0 2.511.741 3.098 1.915a.75.75 0 0 1 0 .67Z" fill="#3d3d3d60"/>
</svg>
