<svg width="512" height="512" viewBox="0 0 512 512" fill="none" xmlns="http://www.w3.org/2000/svg">
<rect width="512" height="512" fill="#ECECEC"/>
<rect width="512" height="512" fill="#1C1C1C"/>
<path d="M205 453H322.182L329.688 381.612L338.261 342.133C344.997 311.115 357.485 281.634 375.079 255.215L382.911 243.453C394.707 225.742 401 204.937 401 183.657V183.657C401 165.624 396.479 147.878 387.851 132.042L386.612 129.768C381.219 119.87 374.373 110.733 366.407 102.758V102.758C345.302 81.6304 316.924 68.9305 287.099 67.4376L258.377 66L220.881 67.9756C198.798 69.1391 177.508 76.5913 159.519 89.4538V89.4538C143.136 101.169 130.085 116.949 121.652 135.24L116.856 145.642C113.628 152.644 111.162 159.972 109.5 167.5V167.5" stroke="url(#paint0_linear_80_142)" stroke-width="76"/>
<path d="M105.288 486L142.632 248.71H65.2207L71.8337 207.865H278.782L271.78 248.71H194.758L157.414 486H105.288Z" fill="url(#paint1_linear_80_142)"/>
<path d="M105.288 486L142.632 248.71H65.2207L71.8337 207.865H278.782L271.78 248.71H194.758L157.414 486H105.288Z" fill="white"/>
<defs>
<linearGradient id="paint0_linear_80_142" x1="430.781" y1="33.4103" x2="-282.4" y2="1093.82" gradientUnits="userSpaceOnUse">
<stop stop-color="#EB8208"/>
<stop offset="0.141308" stop-color="#EBB908"/>
<stop offset="0.370484" stop-color="#EB6708"/>
<stop offset="1" stop-color="#2A2A2E"/>
</linearGradient>
<linearGradient id="paint1_linear_80_142" x1="136.5" y1="245.5" x2="111.5" y2="482" gradientUnits="userSpaceOnUse">
<stop stop-color="white"/>
<stop offset="1" stop-color="#EA6708"/>
</linearGradient>
</defs>
</svg>
