<svg xmlns="http://www.w3.org/2000/svg" xmlns:xlink="http://www.w3.org/1999/xlink" style="margin:auto;background:#dddddd;display:block;z-index:1;position:relative" width="2059" height="1282" preserveAspectRatio="xMidYMid" viewBox="0 0 2059 1282">
<g transform="translate(1029.5,641) scale(1,1) translate(-1029.5,-641)"><defs>
<linearGradient id="lg-0.5337857485170547" x1="0" x2="0" y1="0" y2="1">
  <stop stop-color="#f4e7e7" offset="0.39"></stop>
  <stop stop-color="#f3bfbc" offset="0.6950000000000001"></stop>
  <stop stop-color="#f3bfbc" offset="1"></stop>
</linearGradient>
<linearGradient id="fg-lg-0.5337857485170547" x1="0" x2="0" y1="0" y2="1">
  <stop stop-color="#f4e7e7" stop-opacity="1" offset="0.39"></stop>
  <stop stop-color="#f3bfbc" stop-opacity="0.66" offset="0.6950000000000001"></stop>
  <stop stop-color="#f3bfbc" stop-opacity="0" offset="1"></stop>
</linearGradient>
<style type="text/css">
  path { fill: none; stroke: #faf3f0; stroke-width: 1px }
</style>
</defs>
<rect x="0" y="0" width="2059" height="1282" fill="url(#lg-0.5337857485170547)"></rect><path d="M0 499.98 L-19560.500000000004 1282"></path><path d="M19.60952380952381 499.98 L-19168.309523809527 1282"></path><path d="M39.21904761904762 499.98 L-18776.11904761905 1282"></path><path d="M58.82857142857143 499.98 L-18383.928571428576 1282"></path><path d="M78.43809523809524 499.98 L-17991.7380952381 1282"></path><path d="M98.04761904761905 499.98 L-17599.547619047622 1282"></path><path d="M117.65714285714286 499.98 L-17207.357142857145 1282"></path><path d="M137.26666666666668 499.98 L-16815.16666666667 1282"></path><path d="M156.8761904761905 499.98 L-16422.976190476194 1282"></path><path d="M176.4857142857143 499.98 L-16030.785714285717 1282"></path><path d="M196.0952380952381 499.98 L-15638.59523809524 1282"></path><path d="M215.7047619047619 499.98 L-15246.404761904765 1282"></path><path d="M235.31428571428572 499.98 L-14854.214285714288 1282"></path><path d="M254.92380952380952 499.98 L-14462.023809523813 1282"></path><path d="M274.53333333333336 499.98 L-14069.833333333336 1282"></path><path d="M294.14285714285717 499.98 L-13677.642857142859 1282"></path><path d="M313.752380952381 499.98 L-13285.452380952383 1282"></path><path d="M333.3619047619048 499.98 L-12893.261904761908 1282"></path><path d="M352.9714285714286 499.98 L-12501.071428571431 1282"></path><path d="M372.5809523809524 499.98 L-12108.880952380954 1282"></path><path d="M392.1904761904762 499.98 L-11716.690476190479 1282"></path><path d="M411.8 499.98 L-11324.500000000002 1282"></path><path d="M431.4095238095238 499.98 L-10932.309523809527 1282"></path><path d="M451.0190476190476 499.98 L-10540.11904761905 1282"></path><path d="M470.62857142857143 499.98 L-10147.928571428572 1282"></path><path d="M490.23809523809524 499.98 L-9755.738095238097 1282"></path><path d="M509.84761904761905 499.98 L-9363.54761904762 1282"></path><path d="M529.4571428571429 499.98 L-8971.357142857145 1282"></path><path d="M549.0666666666667 499.98 L-8579.166666666668 1282"></path><path d="M568.6761904761905 499.98 L-8186.976190476193 1282"></path><path d="M588.2857142857143 499.98 L-7794.785714285716 1282"></path><path d="M607.8952380952381 499.98 L-7402.59523809524 1282"></path><path d="M627.504761904762 499.98 L-7010.404761904763 1282"></path><path d="M647.1142857142858 499.98 L-6618.214285714286 1282"></path><path d="M666.7238095238096 499.98 L-6226.023809523811 1282"></path><path d="M686.3333333333334 499.98 L-5833.833333333334 1282"></path><path d="M705.9428571428572 499.98 L-5441.642857142859 1282"></path><path d="M725.552380952381 499.98 L-5049.452380952382 1282"></path><path d="M745.1619047619048 499.98 L-4657.261904761906 1282"></path><path d="M764.7714285714286 499.98 L-4265.071428571429 1282"></path><path d="M784.3809523809524 499.98 L-3872.880952380954 1282"></path><path d="M803.9904761904762 499.98 L-3480.690476190477 1282"></path><path d="M823.6 499.98 L-3088.5 1282"></path><path d="M843.2095238095238 499.98 L-2696.3095238095266 1282"></path><path d="M862.8190476190476 499.98 L-2304.1190476190495 1282"></path><path d="M882.4285714285714 499.98 L-1911.9285714285725 1282"></path><path d="M902.0380952380953 499.98 L-1519.7380952380954 1282"></path><path d="M921.6476190476191 499.98 L-1127.547619047622 1282"></path><path d="M941.2571428571429 499.98 L-735.3571428571413 1282"></path><path d="M960.8666666666667 499.98 L-343.16666666666424 1282"></path><path d="M980.4761904761905 499.98 L49.02380952380918 1282"></path><path d="M1000.0857142857143 499.98 L441.21428571428623 1282"></path><path d="M1019.6952380952381 499.98 L833.4047619047633 1282"></path><path d="M1039.304761904762 499.98 L1225.5952380952403 1282"></path><path d="M1058.9142857142858 499.98 L1617.7857142857138 1282"></path><path d="M1078.5238095238096 499.98 L2009.9761904761908 1282"></path><path d="M1098.1333333333334 499.98 L2402.166666666668 1282"></path><path d="M1117.7428571428572 499.98 L2794.357142857145 1282"></path><path d="M1137.352380952381 499.98 L3186.5476190476184 1282"></path><path d="M1156.9619047619049 499.98 L3578.7380952380954 1282"></path><path d="M1176.5714285714287 499.98 L3970.9285714285725 1282"></path><path d="M1196.1809523809525 499.98 L4363.1190476190495 1282"></path><path d="M1215.7904761904763 499.98 L4755.309523809523 1282"></path><path d="M1235.4 499.98 L5147.5 1282"></path><path d="M1255.009523809524 499.98 L5539.690476190477 1282"></path><path d="M1274.6190476190477 499.98 L5931.880952380954 1282"></path><path d="M1294.2285714285715 499.98 L6324.071428571431 1282"></path><path d="M1313.8380952380953 499.98 L6716.261904761905 1282"></path><path d="M1333.4476190476191 499.98 L7108.452380952382 1282"></path><path d="M1353.057142857143 499.98 L7500.642857142859 1282"></path><path d="M1372.6666666666667 499.98 L7892.833333333336 1282"></path><path d="M1392.2761904761905 499.98 L8285.02380952381 1282"></path><path d="M1411.8857142857144 499.98 L8677.214285714286 1282"></path><path d="M1431.4952380952382 499.98 L9069.404761904763 1282"></path><path d="M1451.104761904762 499.98 L9461.59523809524 1282"></path><path d="M1470.7142857142858 499.98 L9853.785714285714 1282"></path><path d="M1490.3238095238096 499.98 L10245.97619047619 1282"></path><path d="M1509.9333333333334 499.98 L10638.166666666668 1282"></path><path d="M1529.5428571428572 499.98 L11030.357142857145 1282"></path><path d="M1549.152380952381 499.98 L11422.547619047618 1282"></path><path d="M1568.7619047619048 499.98 L11814.738095238095 1282"></path><path d="M1588.3714285714286 499.98 L12206.928571428572 1282"></path><path d="M1607.9809523809524 499.98 L12599.11904761905 1282"></path><path d="M1627.5904761904762 499.98 L12991.309523809523 1282"></path><path d="M1647.2 499.98 L13383.500000000004 1282"></path><path d="M1666.8095238095239 499.98 L13775.690476190477 1282"></path><path d="M1686.4190476190477 499.98 L14167.88095238095 1282"></path><path d="M1706.0285714285715 499.98 L14560.071428571431 1282"></path><path d="M1725.6380952380953 499.98 L14952.261904761905 1282"></path><path d="M1745.247619047619 499.98 L15344.452380952385 1282"></path><path d="M1764.857142857143 499.98 L15736.642857142859 1282"></path><path d="M1784.4666666666667 499.98 L16128.833333333332 1282"></path><path d="M1804.0761904761905 499.98 L16521.023809523813 1282"></path><path d="M1823.6857142857143 499.98 L16913.214285714286 1282"></path><path d="M1843.2952380952381 499.98 L17305.40476190476 1282"></path><path d="M1862.904761904762 499.98 L17697.59523809524 1282"></path><path d="M1882.5142857142857 499.98 L18089.78571428572 1282"></path><path d="M1902.1238095238095 499.98 L18481.976190476194 1282"></path><path d="M1921.7333333333333 499.98 L18874.166666666675 1282"></path><path d="M1941.3428571428572 499.98 L19266.35714285715 1282"></path><path d="M1960.952380952381 499.98 L19658.547619047622 1282"></path><path d="M1980.5619047619048 499.98 L20050.738095238103 1282"></path><path d="M2000.1714285714286 499.98 L20442.928571428576 1282"></path><path d="M2019.7809523809524 499.98 L20835.11904761905 1282"></path><path d="M2039.3904761904762 499.98 L21227.30952380953 1282"></path><path d="M2059 499.98 L21619.500000000004 1282"></path><g>
<path d="M0 499.98 L2059 499.98"></path>
<animateTransform attributeName="transform" type="translate" repeatCount="indefinite" calcMode="linear" keyTimes="0;1" values="0 0;0 9.07923446712018" begin="0s" dur="7.692307692307692s"></animateTransform>

</g><g>
<path d="M0 509.0592344671202 L2059 509.0592344671202"></path>
<animateTransform attributeName="transform" type="translate" repeatCount="indefinite" calcMode="linear" keyTimes="0;1" values="0 0;0 18.15846893424036" begin="0s" dur="7.692307692307692s"></animateTransform>

</g><g>
<path d="M0 527.2177034013605 L2059 527.2177034013605"></path>
<animateTransform attributeName="transform" type="translate" repeatCount="indefinite" calcMode="linear" keyTimes="0;1" values="0 0;0 27.23770340136054" begin="0s" dur="7.692307692307692s"></animateTransform>

</g><g>
<path d="M0 554.4554068027211 L2059 554.4554068027211"></path>
<animateTransform attributeName="transform" type="translate" repeatCount="indefinite" calcMode="linear" keyTimes="0;1" values="0 0;0 36.31693786848072" begin="0s" dur="7.692307692307692s"></animateTransform>

</g><g>
<path d="M0 590.7723446712018 L2059 590.7723446712018"></path>
<animateTransform attributeName="transform" type="translate" repeatCount="indefinite" calcMode="linear" keyTimes="0;1" values="0 0;0 45.3961723356009" begin="0s" dur="7.692307692307692s"></animateTransform>

</g><g>
<path d="M0 636.1685170068027 L2059 636.1685170068027"></path>
<animateTransform attributeName="transform" type="translate" repeatCount="indefinite" calcMode="linear" keyTimes="0;1" values="0 0;0 54.47540680272108" begin="0s" dur="7.692307692307692s"></animateTransform>

</g><g>
<path d="M0 690.6439238095238 L2059 690.6439238095238"></path>
<animateTransform attributeName="transform" type="translate" repeatCount="indefinite" calcMode="linear" keyTimes="0;1" values="0 0;0 63.55464126984126" begin="0s" dur="7.692307692307692s"></animateTransform>

</g><g>
<path d="M0 754.198565079365 L2059 754.198565079365"></path>
<animateTransform attributeName="transform" type="translate" repeatCount="indefinite" calcMode="linear" keyTimes="0;1" values="0 0;0 72.63387573696144" begin="0s" dur="7.692307692307692s"></animateTransform>

</g><g>
<path d="M0 826.8324408163264 L2059 826.8324408163264"></path>
<animateTransform attributeName="transform" type="translate" repeatCount="indefinite" calcMode="linear" keyTimes="0;1" values="0 0;0 81.71311020408163" begin="0s" dur="7.692307692307692s"></animateTransform>

</g><g>
<path d="M0 908.5455510204081 L2059 908.5455510204081"></path>
<animateTransform attributeName="transform" type="translate" repeatCount="indefinite" calcMode="linear" keyTimes="0;1" values="0 0;0 90.79234467120182" begin="0s" dur="7.692307692307692s"></animateTransform>

</g><g>
<path d="M0 999.3378956916099 L2059 999.3378956916099"></path>
<animateTransform attributeName="transform" type="translate" repeatCount="indefinite" calcMode="linear" keyTimes="0;1" values="0 0;0 99.871579138322" begin="0s" dur="7.692307692307692s"></animateTransform>

</g><g>
<path d="M0 1099.2094748299319 L2059 1099.2094748299319"></path>
<animateTransform attributeName="transform" type="translate" repeatCount="indefinite" calcMode="linear" keyTimes="0;1" values="0 0;0 108.95081360544219" begin="0s" dur="7.692307692307692s"></animateTransform>

</g><g>
<path d="M0 1208.160288435374 L2059 1208.160288435374"></path>
<animateTransform attributeName="transform" type="translate" repeatCount="indefinite" calcMode="linear" keyTimes="0;1" values="0 0;0 118.03004807256238" begin="0s" dur="7.692307692307692s"></animateTransform>

</g><g>
<path d="M0 1326.1903365079363 L2059 1326.1903365079363"></path>
<animateTransform attributeName="transform" type="translate" repeatCount="indefinite" calcMode="linear" keyTimes="0;1" values="0 0;0 127.10928253968257" begin="0s" dur="7.692307692307692s"></animateTransform>

</g><rect x="0" y="0" width="2059" height="1282" fill="url(#fg-lg-0.5337857485170547)"></rect></g>
</svg>