<svg width="301" height="638" viewBox="0 0 301 638" fill="none" xmlns="http://www.w3.org/2000/svg">
<g clip-path="url(#clip0_1_28)">
<g clip-path="url(#clip1_1_28)">
<path d="M105 63L201 66.5L198 61L151.5 29L107 61L105 63Z" fill="#FF7263"/>
<path d="M148 59.9809H154.618V12H148V59.9809Z" fill="#FF7263"/>
<path d="M201 67.5C201 69.5026 199.811 71.6465 197.338 73.7906C194.878 75.9231 191.269 77.9449 186.745 79.6915C177.706 83.1817 165.206 85.5 151.5 85.5C137.775 85.5 125.391 83.5513 116.475 80.4305C112.012 78.8685 108.472 77.0315 106.067 75.0414C103.655 73.0459 102.5 70.9993 102.5 69C102.5 67.0007 103.655 64.9541 106.067 62.9586C108.472 60.9685 112.012 59.1315 116.475 57.5695C125.391 54.4487 137.775 52.5 151.5 52.5C165.245 52.5 177.765 54.0781 186.814 56.8323C191.345 58.2112 194.944 59.8665 197.389 61.7196C199.837 63.575 201 65.5222 201 67.5Z" fill="#CCCCCC" stroke="#3F3D56" stroke-width="2"/>
<path d="M101 146L102.5 69" stroke="#3F3D56" stroke-width="2"/>
<path d="M199 144L201 68" stroke="#3F3D56" stroke-width="2"/>
<path d="M181.379 55.3963L179.093 141.164L181.093 141.217L183.378 55.4495L181.379 55.3963Z" fill="#3F3D56"/>
<path d="M154.989 52.3116L152.621 141.164L154.62 141.217L156.988 52.3648L154.989 52.3116Z" fill="#3F3D56"/>
<path d="M128.476 53.8582L126.149 141.164L128.148 141.217L130.475 53.9114L128.476 53.8582Z" fill="#3F3D56"/>
<path d="M207.721 141.19H209.721V115.985L208.993 115.779C208.384 115.606 147.34 98.7251 92.2126 115.787L91.5081 116.004V138.764H93.5081V117.481C144.633 101.942 200.712 115.674 207.721 117.509V141.19Z" fill="#3F3D56"/>
<path d="M92.7664 127.698C157.588 110.383 207.89 127.5 208.391 127.675L209.052 125.788C208.546 125.611 157.697 108.285 92.2502 125.765L92.7664 127.698Z" fill="#3F3D56"/>
<path d="M92.7664 135.056C157.588 117.741 207.89 134.859 208.391 135.034L209.052 133.146C208.546 132.969 157.697 115.644 92.2502 133.124L92.7664 135.056Z" fill="#3F3D56"/>
<path d="M105.744 218.868H195.088V152.661L207.497 141.933C169.35 130.806 130.735 130.501 91.6806 140.279L105.744 152.974V218.868Z" fill="#FF7263"/>
<path d="M228.005 212.97H230.005V179.23L229.277 179.024C228.455 178.793 146.202 156.047 71.9285 179.032L71.2239 179.25V209.696H73.2239V180.726C143.018 159.414 219.728 178.564 228.005 180.752V212.97Z" fill="#3F3D56"/>
<path d="M72.4822 194.43C160.047 171.04 227.999 194.171 228.675 194.408L229.335 192.52C228.654 192.281 160.156 168.942 71.9661 192.498L72.4822 194.43Z" fill="#3F3D56"/>
<path d="M72.4822 204.357C160.049 180.967 227.998 204.099 228.675 204.335L229.335 202.447C228.654 202.209 160.156 178.87 71.9656 202.425L72.4822 204.357Z" fill="#3F3D56"/>
<path d="M139.662 641.596L141.316 558.871L122.406 535.707H101.608L116.498 560.29L117.979 640.782" fill="#CCCCCC"/>
<path fill-rule="evenodd" clip-rule="evenodd" d="M58.5904 641.596H232.314L205.842 261.058L240.587 214.732C181.398 205.262 121.446 202.71 60.2449 211.423L85.0626 254.44L58.5904 641.596ZM117.5 638H85.0626V568.798L101 536L116.498 561.5V568.798L117.5 638ZM160.5 638H193L191.498 568.798V560L177 536L160.063 568.798L160.5 638Z" fill="#E6E6E6"/>
<path d="M214.662 641.596L216.316 558.871L197.406 535.707H176.608L191.498 560.29L192.979 640.782" fill="#CCCCCC"/>
<path d="M139.054 641.596L140.708 558.871L121.799 535.707H101L115.891 560.29L117.371 640.782" fill="#CCCCCC"/>
<path d="M293.085 642H295.085V585.179L294.357 584.973C293.985 584.868 256.509 574.388 202.929 569.189C153.469 564.389 79.7595 563.233 9.48657 584.98L8.78198 585.198V645H10.782V586.674C80.5261 565.25 153.623 566.414 202.737 571.18C252.042 575.964 287.624 585.223 293.085 586.698V642Z" fill="#3F3D56"/>
<path d="M10.0398 611.341C93.1497 589.141 165.86 590.316 212.221 595.211C262.464 600.516 293.448 611.211 293.755 611.318L294.415 609.431C294.107 609.323 262.955 598.564 212.501 593.23C165.957 588.31 92.9602 587.122 9.52368 609.408L10.0398 611.341Z" fill="#3F3D56"/>
<path d="M10.0398 629.342C93.1497 607.143 165.86 608.318 212.221 613.213C262.464 618.518 293.448 629.212 293.755 629.32L294.415 627.432C294.107 627.324 262.955 616.565 212.501 611.231C165.958 606.311 92.9602 605.124 9.52368 627.41L10.0398 629.342Z" fill="#3F3D56"/>
</g>
</g>
<defs>
<clipPath id="clip0_1_28">
<rect width="301" height="638" fill="white"/>
</clipPath>
<clipPath id="clip1_1_28">
<rect width="581.177" height="668" fill="white" transform="translate(-141 -26)"/>
</clipPath>
</defs>
</svg>
