<svg width="118" height="76" viewBox="0 0 118 76" fill="none" xmlns="http://www.w3.org/2000/svg">
<path d="M86.2873 69.6759L86.2004 69.169C86.0957 68.5581 86.5662 68 87.186 68H93.814C94.4338 68 94.9043 68.5581 94.7996 69.169L94.7127 69.6759C94.3835 71.5962 92.7185 73 90.7702 73H90.2298C88.2815 73 86.6165 71.5962 86.2873 69.6759Z" fill="#8E5F29"/>
<path d="M83.5071 65.2747L82.3642 61.2747C82.1817 60.6359 82.6614 60 83.3257 60H98.6743C99.3386 60 99.8183 60.6359 99.6358 61.2747L98.4929 65.2747C98.3703 65.704 97.9763 66 97.5298 66H84.4702C84.0237 66 83.6297 65.704 83.5071 65.2747Z" fill="#8E5F29"/>
<path d="M75.3602 10.2909L68.3936 3.67905" stroke="#EB8208" stroke-width="6"/>
<path d="M74.4604 16.7018L56.056 12.7293" stroke="#EB8208" stroke-width="6"/>
<path d="M90.4999 52L88.9999 58H97.4999V52H90.4999Z" fill="#8E5F29"/>
<path d="M91.9999 55.0001H99.67C100.151 55.0001 100.564 54.6573 100.653 54.1844L102.984 41.7501C103.324 39.941 104.074 38.2341 105.179 36.7616L110.417 29.7772C111.779 27.9616 112.609 25.803 112.814 23.5428L113.121 20.1687C113.368 17.4564 112.767 14.7344 111.403 12.3775V12.3775C109.274 8.70137 105.463 6.3188 101.226 6.01616L96.679 5.69139C94.9018 5.56444 93.1156 5.68763 91.3727 6.05734L90.3387 6.27666C83.467 7.73429 79.3591 14.8096 81.5 21.5V21.5" stroke="url(#paint0_linear_70_671)" stroke-width="6"/>
<path d="M61.1746 58H43.4746L51.3246 24H58.2246L51.7746 52H62.5246L61.1746 58ZM63.3184 58L71.1684 24H78.0684L70.2184 58H63.3184ZM79.0973 30L80.4973 24H102.397L100.997 30H93.4473L86.9973 58H80.0973L86.5473 30H79.0973Z" fill="#444444"/>
<path d="M20.6034 52.54L20.7234 57.06C19.2834 57.3533 17.9368 57.58 16.6834 57.74C15.4301 57.9 14.2301 57.98 13.0834 57.98C10.8168 57.98 9.00344 57.7 7.64344 57.14C6.28344 56.58 5.21677 55.6867 4.44344 54.46C3.6701 53.2333 3.13677 51.7933 2.84344 50.14C2.5501 48.4867 2.40344 46.4067 2.40344 43.9C2.40344 41.26 2.56344 39.0467 2.88344 37.26C3.2301 35.4733 3.80344 34.0333 4.60344 32.94C5.40344 31.82 6.4701 31.02 7.80344 30.54C9.13677 30.06 10.8034 29.82 12.8034 29.82C15.1234 29.82 17.7768 30.18 20.7634 30.9L20.6034 35.3C17.9634 34.9 15.7768 34.7 14.0434 34.7C13.1634 34.7 12.4168 34.7533 11.8034 34.86C11.2168 34.9667 10.7101 35.1533 10.2834 35.42C9.88344 35.66 9.5501 36.0067 9.28344 36.46C9.04344 36.8867 8.8301 37.42 8.64344 38.06C8.45677 38.7267 8.3101 39.6067 8.20344 40.7C8.12344 41.7933 8.08344 43.14 8.08344 44.74C8.08344 46.3133 8.16344 47.6333 8.32344 48.7C8.48344 49.7667 8.76344 50.6333 9.16344 51.3C9.5901 51.94 10.1634 52.4067 10.8834 52.7C11.6034 52.9667 12.5101 53.1 13.6034 53.1C14.7234 53.1 15.8568 53.06 17.0034 52.98C18.1501 52.8733 19.3501 52.7267 20.6034 52.54ZM32.5622 34.62C29.6555 34.62 28.2022 35.58 28.2022 37.5C28.2022 38.3533 28.5622 39.0067 29.2822 39.46C29.6555 39.6733 30.2555 39.9533 31.0822 40.3C31.9089 40.62 33.0022 40.9933 34.3622 41.42C35.6955 41.8467 36.8155 42.2867 37.7222 42.74C38.6289 43.1933 39.3622 43.7267 39.9222 44.34C40.4822 44.9267 40.8822 45.62 41.1222 46.42C41.3889 47.22 41.5222 48.18 41.5222 49.3C41.5222 50.74 41.2955 52.0067 40.8422 53.1C40.3889 54.1667 39.7489 55.06 38.9222 55.78C38.0955 56.5 37.1089 57.0467 35.9622 57.42C34.8155 57.7933 33.5355 57.98 32.1222 57.98C30.0422 57.98 27.4955 57.66 24.4822 57.02L23.0422 56.74L23.6022 52.46C27.1755 52.94 29.9089 53.18 31.8022 53.18C34.6289 53.18 36.0422 52.0067 36.0422 49.66C36.0422 48.8067 35.7222 48.14 35.0822 47.66C34.3889 47.18 33.0822 46.66 31.1622 46.1C29.6155 45.6467 28.2955 45.18 27.2022 44.7C26.1355 44.1933 25.2689 43.62 24.6022 42.98C23.9355 42.3133 23.4555 41.5667 23.1622 40.74C22.8689 39.9133 22.7222 38.9667 22.7222 37.9C22.7222 35.1533 23.5355 33.1267 25.1622 31.82C26.8155 30.4867 29.0955 29.82 32.0022 29.82C32.9889 29.82 34.1089 29.8867 35.3622 30.02C36.6155 30.1533 38.0022 30.3533 39.5222 30.62L40.9622 30.9L40.5222 35.26C38.6289 35.0467 37.0155 34.8867 35.6822 34.78C34.3755 34.6733 33.3355 34.62 32.5622 34.62Z" fill="url(#paint1_linear_70_671)"/>
<path d="M59.208 64.624V63.04H67.208V64.624H64.12V74H62.328V64.624H59.208ZM71.6283 72.56L72.0763 72.512L72.1083 73.808C70.8923 74.0533 69.8149 74.176 68.8763 74.176C67.6923 74.176 66.8389 73.8507 66.3163 73.2C65.8043 72.5493 65.5483 71.5093 65.5483 70.08C65.5483 67.2427 66.7056 65.824 69.0203 65.824C71.2603 65.824 72.3803 67.0453 72.3803 69.488L72.2683 70.736H67.3083C67.3189 71.3973 67.4629 71.8827 67.7403 72.192C68.0176 72.5013 68.5349 72.656 69.2923 72.656C70.0496 72.656 70.8283 72.624 71.6283 72.56ZM70.6683 69.392C70.6683 68.6027 70.5403 68.0533 70.2843 67.744C70.0389 67.424 69.6176 67.264 69.0203 67.264C68.4229 67.264 67.9856 67.4293 67.7083 67.76C67.4416 68.0907 67.3029 68.6347 67.2923 69.392H70.6683ZM74.5213 74H72.7773V66H74.5053V66.496C75.2839 66.048 76.0199 65.824 76.7133 65.824C77.7799 65.824 78.5053 66.128 78.8893 66.736C79.2839 67.3333 79.4813 68.3253 79.4813 69.712V74H77.7533V69.76C77.7533 68.896 77.6573 68.2827 77.4653 67.92C77.2839 67.5573 76.9053 67.376 76.3293 67.376C75.7853 67.376 75.2626 67.4827 74.7613 67.696L74.5213 67.792V74Z" fill="#8C8C8C"/>
<path d="M39.264 74V63.04H41.04V74H39.264ZM42.3289 66.688L43.0489 62.928H44.8729L43.6569 66.688H42.3289ZM46.8294 74H45.0854V66H46.8134V66.496C47.5707 66.048 48.264 65.824 48.8934 65.824C49.8214 65.824 50.4987 66.0853 50.9254 66.608C51.896 66.0853 52.8614 65.824 53.8214 65.824C54.7814 65.824 55.4587 66.1227 55.8534 66.72C56.248 67.3067 56.4454 68.304 56.4454 69.712V74H54.7174V69.76C54.7174 68.896 54.6267 68.2827 54.4454 67.92C54.2747 67.5573 53.912 67.376 53.3574 67.376C52.8774 67.376 52.36 67.4827 51.8054 67.696L51.5334 67.808C51.6187 68.0213 51.6614 68.704 51.6614 69.856V74H49.9334V69.888C49.9334 68.9387 49.848 68.2827 49.6774 67.92C49.5067 67.5573 49.1334 67.376 48.5574 67.376C48.024 67.376 47.528 67.4827 47.0694 67.696L46.8294 67.792V74Z" fill="#8C8C8C"/>
<path d="M13.9549 74H7.81088V63.04H9.58688V72.416H13.9549V74ZM15.1966 74V66H16.9406V74H15.1966ZM15.1966 64.64V62.8H16.9406V64.64H15.1966ZM20.8 74H19.056V62.672H20.8V69.216L21.792 69.12L23.68 66H25.632L23.328 69.744L25.76 74H23.792L21.84 70.624L20.8 70.736V74ZM32.5645 72.56L33.0125 72.512L33.0445 73.808C31.8285 74.0533 30.7512 74.176 29.8125 74.176C28.6285 74.176 27.7752 73.8507 27.2525 73.2C26.7405 72.5493 26.4845 71.5093 26.4845 70.08C26.4845 67.2427 27.6418 65.824 29.9565 65.824C32.1965 65.824 33.3165 67.0453 33.3165 69.488L33.2045 70.736H28.2445C28.2552 71.3973 28.3992 71.8827 28.6765 72.192C28.9538 72.5013 29.4712 72.656 30.2285 72.656C30.9858 72.656 31.7645 72.624 32.5645 72.56ZM31.6045 69.392C31.6045 68.6027 31.4765 68.0533 31.2205 67.744C30.9752 67.424 30.5538 67.264 29.9565 67.264C29.3592 67.264 28.9218 67.4293 28.6445 67.76C28.3778 68.0907 28.2392 68.6347 28.2285 69.392H31.6045Z" fill="#8C8C8C"/>
<defs>
<linearGradient id="paint0_linear_70_671" x1="79.5" y1="77.5" x2="127.229" y2="-7.10744" gradientUnits="userSpaceOnUse">
<stop stop-color="#444444"/>
<stop offset="0.658464" stop-color="#FF8A00"/>
<stop offset="1" stop-color="#FFC700"/>
</linearGradient>
<linearGradient id="paint1_linear_70_671" x1="20" y1="27.5" x2="18" y2="61.5" gradientUnits="userSpaceOnUse">
<stop stop-color="#444444"/>
<stop offset="1" stop-color="#8C8C8C"/>
</linearGradient>
</defs>
</svg>
