<svg width="138" height="81" viewBox="0 0 138 81" fill="none" xmlns="http://www.w3.org/2000/svg">
<path d="M116.025 77.5001H115.006C113.278 77.5001 111.789 76.2846 111.442 74.5918C111.327 74.028 111.758 73.5001 112.333 73.5001H118.698C119.274 73.5001 119.705 74.028 119.589 74.5918C119.243 76.2846 117.753 77.5001 116.025 77.5001Z" fill="#444444"/>
<path d="M108.409 70.3252L107.377 67.3252C107.154 66.676 107.637 66.0001 108.323 66.0001H123.568C124.254 66.0001 124.737 66.676 124.513 67.3252L123.482 70.3252C123.343 70.729 122.962 71.0001 122.535 71.0001H109.356C108.929 71.0001 108.548 70.729 108.409 70.3252Z" fill="#444444"/>
<path d="M73.564 11.8581L87.4769 16.0803L88.9372 11.5408L75.0243 7.31863L73.564 11.8581Z" fill="#FF9401"/>
<path d="M83.6535 3.83553L87.9672 10.0191L91.3332 7.22545L87.0196 1.04193L83.6535 3.83553Z" fill="#FF9401"/>
<path d="M105.203 59.548H125.895C126.421 59.548 126.857 59.141 126.893 58.6166L127.748 46.1833C127.888 44.1462 128.339 42.1426 129.085 40.2421L133.875 28.0512C135.871 22.97 135.703 17.2936 133.411 12.339L133.045 11.548V11.548C130.628 6.32496 125.426 2.95437 119.671 2.88258L110.475 2.76787C99.4751 2.63066 91.195 12.7433 93.5 23.5V23.5" stroke="url(#paint0_linear_54_2)" stroke-width="5"/>
<path d="M12.461 69.425L13.427 70.951L8.884 73.604L13.427 76.208L12.426 77.783L6.973 74.395V72.827L12.461 69.425ZM17.5111 78V68.298H19.8071V76.187H24.0141L23.7761 78H17.5111ZM29.9166 70.566V76.488H31.8066V78H25.5976V76.488H27.7046V72.078H25.6676V70.566H29.9166ZM28.5796 66.674C28.9623 66.674 29.2749 66.793 29.5176 67.031C29.7603 67.269 29.8816 67.5653 29.8816 67.92C29.8816 68.2747 29.7603 68.5733 29.5176 68.816C29.2749 69.054 28.9623 69.173 28.5796 69.173C28.1923 69.173 27.8749 69.054 27.6276 68.816C27.3849 68.5733 27.2636 68.2747 27.2636 67.92C27.2636 67.5653 27.3849 67.269 27.6276 67.031C27.8749 66.793 28.1923 66.674 28.5796 66.674ZM40.6141 70.566L38.1711 73.856L40.8171 78H38.2971L35.8541 73.926L38.2971 70.566H40.6141ZM35.7701 67.381V78H33.5581V67.612L35.7701 67.381ZM43.6607 74.927C43.712 75.333 43.817 75.662 43.9757 75.914C44.139 76.1613 44.3467 76.3433 44.5987 76.46C44.8507 76.572 45.133 76.628 45.4457 76.628C45.7863 76.628 46.1153 76.572 46.4327 76.46C46.75 76.348 47.0557 76.1987 47.3497 76.012L48.2387 77.216C47.8887 77.5147 47.464 77.7597 46.9647 77.951C46.47 78.1423 45.9053 78.238 45.2707 78.238C44.4213 78.238 43.7097 78.07 43.1357 77.734C42.5617 77.3933 42.13 76.9267 41.8407 76.334C41.5513 75.7413 41.4067 75.06 41.4067 74.29C41.4067 73.5573 41.5467 72.8923 41.8267 72.295C42.1067 71.693 42.515 71.2147 43.0517 70.86C43.593 70.5007 44.2533 70.321 45.0327 70.321C45.742 70.321 46.3557 70.4727 46.8737 70.776C47.3963 71.0793 47.8 71.5157 48.0847 72.085C48.374 72.6543 48.5187 73.338 48.5187 74.136C48.5187 74.262 48.514 74.3973 48.5047 74.542C48.5 74.6867 48.4907 74.815 48.4767 74.927H43.6607ZM45.0327 71.805C44.636 71.805 44.3163 71.9473 44.0737 72.232C43.831 72.5167 43.684 72.9717 43.6327 73.597H46.3627C46.358 73.0557 46.253 72.6217 46.0477 72.295C45.8423 71.9683 45.504 71.805 45.0327 71.805ZM56.2972 68.298V69.978H54.2952V76.313H56.2972V78H49.9972V76.313H51.9992V69.978H49.9972V68.298H56.2972ZM57.3767 68.221C57.3767 67.8663 57.5027 67.5677 57.7547 67.325C58.0114 67.0777 58.3264 66.954 58.6997 66.954C59.0777 66.954 59.3904 67.0777 59.6377 67.325C59.8851 67.5677 60.0087 67.8663 60.0087 68.221C60.0087 68.4217 59.9761 68.6317 59.9107 68.851C59.8501 69.0703 59.7357 69.3457 59.5677 69.677L58.5667 71.756H57.3207L57.9227 69.278C57.7547 69.1567 57.6217 69.0097 57.5237 68.837C57.4257 68.6597 57.3767 68.4543 57.3767 68.221ZM66.4013 70.321C66.7559 70.321 67.0476 70.3957 67.2763 70.545C67.5049 70.6943 67.6753 70.93 67.7873 71.252C67.8993 71.5693 67.9553 71.9847 67.9553 72.498V78H66.0583V72.75C66.0583 72.4887 66.0326 72.3043 65.9813 72.197C65.9346 72.0897 65.8366 72.036 65.6873 72.036C65.5706 72.036 65.4493 72.071 65.3233 72.141C65.2019 72.2063 65.0666 72.3323 64.9173 72.519V78H63.3633V72.75C63.3633 72.4887 63.3376 72.3043 63.2863 72.197C63.2396 72.0897 63.1416 72.036 62.9923 72.036C62.8756 72.036 62.7543 72.071 62.6283 72.141C62.5069 72.2063 62.3716 72.3323 62.2223 72.519V78H60.2973V70.566H61.9213L62.0683 71.287C62.3016 70.9697 62.5373 70.7293 62.7753 70.566C63.0133 70.4027 63.2956 70.321 63.6223 70.321C63.9023 70.321 64.1403 70.3933 64.3363 70.538C64.5369 70.678 64.6793 70.8997 64.7633 71.203C64.9873 70.9417 65.2346 70.7293 65.5053 70.566C65.7759 70.4027 66.0746 70.321 66.4013 70.321ZM73.4448 70.055V78H71.1488V70.055H68.4258V68.298H76.2798L76.0418 70.055H73.4448ZM79.1933 74.927C79.2446 75.333 79.3496 75.662 79.5083 75.914C79.6716 76.1613 79.8793 76.3433 80.1313 76.46C80.3833 76.572 80.6656 76.628 80.9783 76.628C81.319 76.628 81.648 76.572 81.9653 76.46C82.2826 76.348 82.5883 76.1987 82.8823 76.012L83.7713 77.216C83.4213 77.5147 82.9966 77.7597 82.4973 77.951C82.0026 78.1423 81.438 78.238 80.8033 78.238C79.954 78.238 79.2423 78.07 78.6683 77.734C78.0943 77.3933 77.6626 76.9267 77.3733 76.334C77.084 75.7413 76.9393 75.06 76.9393 74.29C76.9393 73.5573 77.0793 72.8923 77.3593 72.295C77.6393 71.693 78.0476 71.2147 78.5843 70.86C79.1256 70.5007 79.786 70.321 80.5653 70.321C81.2746 70.321 81.8883 70.4727 82.4063 70.776C82.929 71.0793 83.3326 71.5157 83.6173 72.085C83.9066 72.6543 84.0513 73.338 84.0513 74.136C84.0513 74.262 84.0466 74.3973 84.0373 74.542C84.0326 74.6867 84.0233 74.815 84.0093 74.927H79.1933ZM80.5653 71.805C80.1686 71.805 79.849 71.9473 79.6063 72.232C79.3636 72.5167 79.2166 72.9717 79.1653 73.597H81.8953C81.8906 73.0557 81.7856 72.6217 81.5803 72.295C81.375 71.9683 81.0366 71.805 80.5653 71.805ZM85.4598 78V70.566H87.3918L87.5458 71.427C87.8772 71.0537 88.2272 70.776 88.5958 70.594C88.9645 70.412 89.3845 70.321 89.8558 70.321C90.4905 70.321 90.9898 70.5147 91.3538 70.902C91.7178 71.2893 91.8998 71.8353 91.8998 72.54V78H89.6878V73.177C89.6878 72.8737 89.6668 72.6333 89.6248 72.456C89.5828 72.274 89.5082 72.1457 89.4008 72.071C89.2982 71.9917 89.1558 71.952 88.9738 71.952C88.8198 71.952 88.6682 71.987 88.5188 72.057C88.3742 72.1223 88.2318 72.218 88.0918 72.344C87.9518 72.47 87.8118 72.6217 87.6718 72.799V78H85.4598ZM96.6419 69.425L102.116 72.813V74.395L96.6629 77.783L95.6619 76.278L100.212 73.604L95.6619 71.014L96.6419 69.425Z" fill="#9C9C9C"/>
<path d="M123.954 33.8H114.404L108.904 62H101.104L106.604 33.8H96.8043L98.1043 27H125.254L123.954 33.8Z" fill="#444444"/>
<path d="M58.8117 62L65.6117 27H73.4117L67.9117 55.2H82.3617L81.0617 62H58.8117ZM84.2531 62L91.0531 27H98.8531L92.0531 62H84.2531Z" fill="#444444"/>
<path d="M16.5844 62.5C8.48438 62.5 3.28437 58 3.28437 49.55V39.5C3.28437 31.05 8.53438 26.5 16.3344 26.5C24.1344 26.5 28.2844 31.2 28.8344 38H24.0344C23.4844 33.35 21.1344 30.75 16.4344 30.75C10.9844 30.75 8.28438 34.25 8.28438 39.6V49.45C8.28438 54.75 10.9844 58.25 16.3344 58.25C21.0344 58.25 23.6344 55.95 24.0344 51H28.8344C28.4344 58.35 23.7344 62.5 16.5844 62.5ZM42.3402 30.75C37.8902 30.75 36.3402 32.8 36.3402 35.55C36.3402 38.55 37.7402 39.6 41.9902 41.15L45.6402 42.5C52.4402 45.1 54.4402 47.65 54.4402 52.7C54.4402 58.95 50.8902 62.5 42.9902 62.5C35.4902 62.5 31.2402 59.2 30.4402 51.85H35.2402C35.8902 56.2 38.0902 58.25 42.9902 58.25C47.5402 58.25 49.4402 56.5 49.4402 52.9C49.4402 49.8 48.1402 48.5 43.5402 46.75L39.9402 45.45C33.6902 43.15 31.3402 40.9 31.3402 35.65C31.3402 30.45 34.6902 26.5 42.3402 26.5C49.7902 26.5 53.5902 30.35 53.7902 37.2H48.9902C48.6902 32.9 46.8902 30.75 42.3402 30.75Z" fill="#444444"/>
<defs>
<linearGradient id="paint0_linear_54_2" x1="121.531" y1="64" x2="149.719" y2="6.05198" gradientUnits="userSpaceOnUse">
<stop offset="0.196169" stop-color="#444444"/>
<stop offset="0.664938" stop-color="#FF8A00"/>
<stop offset="1" stop-color="#FFC700"/>
</linearGradient>
</defs>
</svg>
