<svg width="119" height="77" viewBox="0 0 119 77" fill="none" xmlns="http://www.w3.org/2000/svg">
<path d="M90.2873 71.6759L90.2004 71.169C90.0957 70.5581 90.5662 70 91.186 70H97.814C98.4338 70 98.9043 70.5581 98.7996 71.169L98.7127 71.6759C98.3835 73.5962 96.7185 75 94.7702 75H94.2298C92.2815 75 90.6165 73.5962 90.2873 71.6759Z" fill="#444444"/>
<path d="M87.5071 67.2747L86.3642 63.2747C86.1817 62.6359 86.6614 62 87.3257 62H102.674C103.339 62 103.818 62.6359 103.636 63.2747L102.493 67.2747C102.37 67.704 101.976 68 101.53 68H88.4702C88.0237 68 87.6297 67.704 87.5071 67.2747Z" fill="#444444"/>
<path d="M74.7149 12.9818L68.2659 7.46713" stroke="#EB8208" stroke-width="6"/>
<path d="M74.2629 20.0384L58 17.2962" stroke="#EB8208" stroke-width="6"/>
<path d="M78.5 57H104.062C104.589 57 105.026 56.5903 105.06 56.064L105.711 45.9092C105.846 43.8054 106.312 41.7361 107.093 39.778L112.466 26.3088C114.054 22.33 113.913 17.87 112.079 13.9989L111.782 13.372C110.019 9.64997 106.671 6.89235 102.685 5.8527V5.8527C99.2822 4.96493 95.7069 4.80446 92.2396 5.39322L91.6698 5.48995C83.3326 6.90561 78.4064 15.6296 81.5 23.5V23.5" stroke="url(#paint0_linear_67_35)" stroke-width="6"/>
<path d="M77.5 54L76 60H84.5V54H77.5Z" fill="#444444"/>
<path d="M21.6423 59.527C18.6036 60.1863 15.866 60.516 13.4293 60.516C10.9926 60.516 9.04331 60.215 7.58131 59.613C6.11931 59.011 4.97264 58.0507 4.14131 56.732C3.30997 55.4133 2.73664 53.8653 2.42131 52.088C2.10597 50.3107 1.94831 48.0747 1.94831 45.38C1.94831 39.7327 2.73664 35.8053 4.31331 33.598C5.91864 31.362 8.85697 30.244 13.1283 30.244C15.5936 30.244 18.446 30.631 21.6853 31.405L21.5133 36.135C18.6753 35.705 16.3103 35.49 14.4183 35.49C12.555 35.49 11.222 35.748 10.4193 36.264C9.61664 36.7513 9.01464 37.6973 8.61331 39.102C8.24064 40.5067 8.05431 42.9003 8.05431 46.283C8.05431 49.6657 8.44131 52.0163 9.21531 53.335C10.018 54.625 11.5946 55.27 13.9453 55.27C16.3246 55.27 18.8473 55.0693 21.5133 54.668L21.6423 59.527ZM33.724 35.404C30.5993 35.404 29.037 36.436 29.037 38.5C29.037 39.4173 29.424 40.1197 30.198 40.607C30.972 41.0943 32.778 41.7967 35.616 42.714C38.4826 43.6313 40.4893 44.6777 41.636 45.853C42.7826 46.9997 43.356 48.777 43.356 51.185C43.356 54.2523 42.4243 56.5743 40.561 58.151C38.6976 59.7277 36.261 60.516 33.251 60.516C31.015 60.516 28.2773 60.172 25.038 59.484L23.49 59.183L24.092 54.582C27.9333 55.098 30.8716 55.356 32.907 55.356C35.9456 55.356 37.465 54.0947 37.465 51.572C37.465 50.6547 37.1066 49.938 36.39 49.422C35.702 48.906 34.3116 48.347 32.219 47.745C28.8936 46.799 26.543 45.681 25.167 44.391C23.8196 43.0723 23.146 41.252 23.146 38.93C23.146 36.006 24.0346 33.8273 25.812 32.394C27.5893 30.9607 30.026 30.244 33.122 30.244C35.2433 30.244 37.938 30.5307 41.206 31.104L42.754 31.405L42.281 36.092C38.239 35.6333 35.3866 35.404 33.724 35.404ZM64.1746 60H46.4746L54.3246 26H61.2246L54.7746 54H65.5246L64.1746 60ZM66.3184 60L74.1684 26H81.0684L73.2184 60H66.3184ZM82.0973 32L83.4973 26H105.397L103.997 32H96.4473L89.9973 60H83.0973L89.5473 32H82.0973Z" fill="#444444"/>
<path d="M55.182 67.188V65.48H62.182V67.188H59.662V75H57.73V67.188H55.182ZM63.8064 72.298C63.8158 72.7273 63.9278 73.04 64.1424 73.236C64.3664 73.4226 64.6838 73.516 65.0944 73.516C65.9624 73.516 66.7371 73.488 67.4184 73.432L67.8104 73.39L67.8384 74.776C66.7651 75.0373 65.7944 75.168 64.9264 75.168C63.8718 75.168 63.1064 74.888 62.6304 74.328C62.1544 73.768 61.9164 72.858 61.9164 71.598C61.9164 69.0873 62.9478 67.832 65.0104 67.832C67.0451 67.832 68.0624 68.8866 68.0624 70.996L67.9224 72.298H63.8064ZM66.2144 70.87C66.2144 70.31 66.1258 69.9226 65.9484 69.708C65.7711 69.484 65.4584 69.372 65.0104 69.372C64.5718 69.372 64.2591 69.4886 64.0724 69.722C63.8951 69.946 63.8018 70.3286 63.7924 70.87H66.2144ZM71.2792 75H69.4032V68H71.2652V68.392C71.8998 68.0186 72.4832 67.832 73.0152 67.832C73.9485 67.832 74.5925 68.1073 74.9472 68.658C75.3018 69.2086 75.4792 70.058 75.4792 71.206V75H73.6032V71.262C73.6032 70.6646 73.5332 70.226 73.3932 69.946C73.2532 69.6566 72.9732 69.512 72.5532 69.512C72.1705 69.512 71.8018 69.5773 71.4472 69.708L71.2792 69.764V75Z" fill="#8C8C8C"/>
<path d="M39.036 75V65.48H40.968V75H39.036ZM41.4599 68.938L42.1179 65.48H44.0919L42.9019 68.938H41.4599ZM45.7845 75H43.9085V68H45.7705V68.392C46.4145 68.0187 46.9652 67.832 47.4225 67.832C48.1785 67.832 48.7619 68.0513 49.1725 68.49C50.0312 68.0513 50.8152 67.832 51.5245 67.832C52.4485 67.832 53.0879 68.1027 53.4425 68.644C53.8065 69.176 53.9885 70.03 53.9885 71.206V75H52.1125V71.262C52.1125 70.6647 52.0472 70.226 51.9165 69.946C51.7859 69.6567 51.5245 69.512 51.1325 69.512C50.8339 69.512 50.4699 69.5773 50.0405 69.708L49.8305 69.778C49.8679 70.478 49.8865 71.01 49.8865 71.374V75H48.0105V71.402C48.0105 70.7113 47.9499 70.226 47.8285 69.946C47.7072 69.6567 47.4412 69.512 47.0305 69.512C46.6665 69.512 46.3072 69.5773 45.9525 69.708L45.7845 69.764V75Z" fill="#8C8C8C"/>
<path d="M19.6825 75H14.2645V65.48H16.1965V73.292H19.6825V75ZM20.7 75V68H22.576V75H20.7ZM20.7 67.104V65.2H22.576V67.104H20.7ZM26.1854 75H24.3094V65.2H26.1854V70.772L26.8994 70.646L28.2854 68H30.3854L28.5654 71.318L30.4834 75H28.3694L26.9554 72.27L26.1854 72.396V75ZM32.9314 72.298C32.9408 72.7273 33.0528 73.04 33.2674 73.236C33.4914 73.4227 33.8088 73.516 34.2194 73.516C35.0874 73.516 35.8621 73.488 36.5434 73.432L36.9354 73.39L36.9634 74.776C35.8901 75.0373 34.9194 75.168 34.0514 75.168C32.9968 75.168 32.2314 74.888 31.7554 74.328C31.2794 73.768 31.0414 72.858 31.0414 71.598C31.0414 69.0873 32.0728 67.832 34.1354 67.832C36.1701 67.832 37.1874 68.8867 37.1874 70.996L37.0474 72.298H32.9314ZM35.3394 70.87C35.3394 70.31 35.2508 69.9227 35.0734 69.708C34.8961 69.484 34.5834 69.372 34.1354 69.372C33.6968 69.372 33.3841 69.4887 33.1974 69.722C33.0201 69.946 32.9268 70.3287 32.9174 70.87H35.3394Z" fill="#8C8C8C"/>
<path d="M11.608 70.058L7.954 71.444L11.608 72.956V74.86L5.924 72.256V70.716L11.608 68.154V70.058ZM81.7519 71.444L78.0979 70.058V68.154L83.7819 70.716V72.256L78.0979 74.86V72.956L81.7519 71.444Z" fill="#8C8C8C"/>
<defs>
<linearGradient id="paint0_linear_67_35" x1="93.5" y1="63.25" x2="128.767" y2="-6.31973" gradientUnits="userSpaceOnUse">
<stop offset="0.0890182" stop-color="#444444"/>
<stop offset="0.658464" stop-color="#FF8A00"/>
<stop offset="1" stop-color="#FFC700"/>
</linearGradient>
</defs>
</svg>
