<svg width="162" height="78" viewBox="0 0 162 78" fill="none" xmlns="http://www.w3.org/2000/svg">
<path d="M114.205 18.4593L96.3063 12.6174" stroke="#EB8208" stroke-width="6"/>
<path d="M114.304 11.018L108.835 3.12186" stroke="#EB8208" stroke-width="6"/>
<path d="M136.5 57.5H147.5L148.5 48L150.116 40.567C150.7 37.8795 151.783 35.3254 153.309 33.037L155.591 29.6133C157.162 27.2573 158 24.489 158 21.6573V21.6573C158 19.2575 157.398 16.896 156.249 14.7892L156.083 14.4851C155.365 13.1685 154.452 11.9525 153.392 10.8921V10.8921C150.581 8.08116 146.802 6.39008 142.831 6.19156L139 6L134.001 6.2631C131.062 6.41781 128.228 7.40893 125.832 9.11982L125.685 9.22464C123.598 10.7158 121.935 12.725 120.86 15.0544V15.0544C119.964 16.995 119.5 19.1069 119.5 21.2442V22" stroke="url(#paint0_linear_76_229)" stroke-width="6"/>
<path d="M146 66H128" stroke="#754E33" stroke-width="5"/>
<path d="M142.5 73.9988L131.5 74" stroke="#754E33" stroke-width="5"/>
<path d="M66.1105 60.5L71.7605 24.75H85.1105L81.0605 50.3H93.1105L91.5105 60.5H66.1105ZM94.7469 60.5L100.397 24.75H113.847L108.197 60.5H94.7469ZM119.478 60.5L123.478 34.95H114.828L116.478 24.75H147.178L145.528 34.95H136.878L132.878 60.5H119.478Z" fill="#2A2A2E"/>
<path d="M19.1571 60.49C8.18115 60.49 2.05615 53.483 2.05615 42.703V42.311C2.05615 31.776 9.30815 24.426 19.0591 24.426C27.0951 24.426 33.3181 28.444 34.1021 36.676H27.4871C26.7521 32.021 24.1551 29.62 19.1081 29.62C12.9341 29.62 8.91615 34.422 8.91615 42.262V42.654C8.91615 50.543 12.6891 55.198 19.1571 55.198C24.0081 55.198 27.4381 52.748 28.1241 47.799H34.4941C33.4651 56.227 27.4871 60.49 19.1571 60.49ZM50.8215 60.49C41.2665 60.49 37.2485 55.737 36.7585 49.122H43.0305C43.4715 52.65 44.8925 55.59 50.8215 55.59C54.6925 55.59 57.4365 53.434 57.4365 50.2C57.4365 46.966 55.8195 45.741 50.1355 44.81C41.7565 43.683 37.7875 41.135 37.7875 34.569C37.7875 28.836 42.6875 24.524 49.9885 24.524C57.5345 24.524 62.0425 27.954 62.7285 34.667H56.7505C56.1135 30.992 54.0065 29.424 49.9885 29.424C46.0195 29.424 43.9615 31.335 43.9615 34.03C43.9615 36.872 45.1375 38.293 51.2135 39.175C59.4455 40.302 63.7085 42.654 63.7085 49.661C63.7085 55.737 58.5635 60.49 50.8215 60.49Z" fill="url(#paint1_linear_76_229)"/>
<path d="M47.2495 76.5L48.8315 66.49H50.6935L49.3495 75.016H53.6195L53.3815 76.5H47.2495ZM57.5225 67.974C56.9625 67.974 56.5285 67.554 56.5285 67.008C56.5285 66.462 56.9765 66.028 57.5365 66.028C58.0965 66.028 58.5305 66.448 58.5305 66.994C58.5305 67.54 58.0825 67.974 57.5225 67.974ZM55.2125 76.5L56.3745 69.178H58.0685L56.9065 76.5H55.2125ZM59.3212 76.5L61.0012 65.79H62.6952L61.6732 72.314L64.7532 69.178H66.6992L63.2692 72.552L65.6912 76.5H63.8152L61.5892 72.79L61.0152 76.5H59.3212ZM68.5436 73.518C68.5436 74.652 69.0616 75.38 70.3076 75.38C71.2176 75.38 71.8056 74.988 72.0436 74.26H73.6816C73.2616 75.842 71.9176 76.64 70.2516 76.64C68.2076 76.64 66.8496 75.436 66.8496 73.434C66.8496 70.83 68.5576 69.038 70.8116 69.038C72.9536 69.038 74.2836 70.382 73.8916 72.902L73.8356 73.21H68.5436V73.518ZM70.7696 70.256C69.8876 70.256 69.0476 70.774 68.7116 72.076H72.3096C72.4076 70.872 71.9176 70.256 70.7696 70.256ZM79.038 76.5L80.62 66.49H82.496L80.914 76.5H79.038ZM84.2126 70.004L83.2466 69.57L84.6746 66.322L86.1866 66.924L84.2126 70.004ZM84.5863 76.5L85.3843 71.446C85.5383 70.424 85.5803 69.808 85.6083 69.178H87.2323C87.2323 69.57 87.2183 70.018 87.1623 70.494C87.6663 69.64 88.5203 69.024 89.5283 69.024C90.5363 69.024 91.2643 69.486 91.4883 70.522C92.1603 69.43 93.1263 69.024 94.0083 69.024C95.4083 69.024 96.4163 69.878 96.0663 72.048L95.3663 76.5H93.6723L94.3723 72.062C94.5543 70.942 94.2043 70.424 93.3503 70.424C92.5243 70.424 91.6843 70.998 91.4883 72.216L90.8163 76.5H89.1363L89.8363 72.006C90.0043 70.956 89.6403 70.424 88.8003 70.424C87.9323 70.424 87.1343 71.054 86.9523 72.216L86.2803 76.5H84.5863ZM103.479 76.5L104.823 67.96H102.037L102.275 66.49H109.723L109.471 67.96H106.699L105.355 76.5H103.479ZM110.669 73.518C110.669 74.652 111.187 75.38 112.433 75.38C113.343 75.38 113.931 74.988 114.169 74.26H115.807C115.387 75.842 114.043 76.64 112.377 76.64C110.333 76.64 108.975 75.436 108.975 73.434C108.975 70.83 110.683 69.038 112.937 69.038C115.079 69.038 116.409 70.382 116.017 72.902L115.961 73.21H110.669V73.518ZM112.895 70.256C112.013 70.256 111.173 70.774 110.837 72.076H114.435C114.533 70.872 114.043 70.256 112.895 70.256ZM117.281 76.5L118.079 71.446C118.233 70.424 118.275 69.808 118.303 69.178H119.927C119.927 69.57 119.899 70.088 119.843 70.55C120.361 69.696 121.187 69.024 122.377 69.024C123.847 69.024 124.841 69.892 124.491 72.104L123.791 76.5H122.097L122.797 72.02C122.979 70.942 122.601 70.424 121.719 70.424C120.669 70.424 119.815 71.11 119.633 72.328L118.975 76.5H117.281Z" fill="#5B5B5B"/>
<defs>
<linearGradient id="paint0_linear_76_229" x1="161.967" y1="1.66312" x2="120.747" y2="65.1605" gradientUnits="userSpaceOnUse">
<stop stop-color="#EB8208"/>
<stop offset="0.141308" stop-color="#EBB908"/>
<stop offset="0.370484" stop-color="#EB6708"/>
<stop offset="1" stop-color="#2A2A2E"/>
</linearGradient>
<linearGradient id="paint1_linear_76_229" x1="39.55" y1="25" x2="37.8094" y2="59.0286" gradientUnits="userSpaceOnUse">
<stop stop-color="#2A2A2E"/>
<stop offset="1" stop-color="#8C8C8C"/>
</linearGradient>
</defs>
</svg>
