<svg width="176" height="93" viewBox="0 0 176 93" fill="none" xmlns="http://www.w3.org/2000/svg">
<path d="M124.112 90.5H121.888C120.167 90.5 118.671 89.3185 118.273 87.6443C118.134 87.0605 118.576 86.5 119.176 86.5H126.824C127.424 86.5 127.867 87.0605 127.728 87.6443C127.329 89.3185 125.833 90.5 124.112 90.5Z" fill="#444444"/>
<path d="M114.749 83.3714L113.549 80.3714C113.286 79.7145 113.77 79 114.477 79H132.523C133.23 79 133.714 79.7145 133.452 80.3714L132.252 83.3714C132.1 83.751 131.731 84 131.322 84H115.678C115.269 84 114.9 83.751 114.749 83.3714Z" fill="#444444"/>
<path d="M88.5677 10.7141L102.504 19.8166L105.635 16.0731L91.6984 6.97062L88.5677 10.7141Z" fill="#FF9401"/>
<path d="M102.385 6.86198L105.074 14.281L109.723 12.8854L107.034 5.4664L102.385 6.86198Z" fill="#FF9401"/>
<path d="M111 72.548H135.241C135.763 72.548 136.197 72.1474 136.238 71.6277L137.198 59.6237C137.384 57.2989 137.976 55.0245 138.945 52.9034L143.964 41.9254C146.506 36.3638 146.297 29.9322 143.397 24.5479V24.5479V24.5479C140.562 19.2831 135.066 16 129.086 16H121.5C112.387 16 105 23.3873 105 32.5V32.5" stroke="url(#paint0_linear_37_3)" stroke-width="5"/>
<path d="M17.798 33L20.382 19.7H22.681L20.477 31.005H26.348L25.968 33H17.798ZM29.9809 21.961C29.1259 21.961 28.5369 21.41 28.7079 20.574C28.8409 19.795 29.5249 19.358 30.3229 19.358C31.1399 19.358 31.7479 19.909 31.5959 20.726C31.4439 21.505 30.7789 21.961 29.9809 21.961ZM26.5989 33L28.4419 23.538H30.7409L28.8979 33H26.5989ZM37.1336 33L35.0246 29.048L33.5426 30.416L33.0296 33H30.7306L33.4286 19.13H35.7276L34.1506 27.319L38.1976 23.538H40.9906L36.7156 27.49L39.7366 33H37.1336ZM48.1221 30.15C47.3431 32.316 45.8231 33.19 43.8281 33.19C41.4341 33.19 39.4961 31.67 40.0471 28.858L40.3131 27.528C40.8641 24.811 42.5931 23.348 45.0061 23.348C47.7801 23.348 49.1481 25.153 48.6541 27.718L48.4451 28.801H42.4411C42.4031 29.048 42.3841 29.295 42.3651 29.523C42.3081 30.663 42.9161 31.271 44.0181 31.271C44.0751 31.271 44.1321 31.252 44.2081 31.252C45.0821 31.195 45.5381 30.834 45.8801 30.15H48.1221ZM42.7261 27.338L42.9351 27.395H46.5261C46.7351 25.932 46.2411 25.248 44.9301 25.248C43.7141 25.248 43.0301 26.046 42.7261 27.338ZM53.282 33L55.866 19.7H58.165L55.581 33H53.282ZM60.0038 24.298H58.5978L60.2128 19.7H62.6258L60.0038 24.298ZM62.0603 33H59.7613L61.6043 23.538H63.9033L63.5993 25.134C64.4163 23.899 65.4423 23.348 66.6393 23.348C67.9693 23.348 68.7863 24.032 69.0523 25.134C69.9453 23.918 71.1233 23.348 72.4343 23.348C74.3343 23.348 75.2463 24.83 74.8663 26.73L73.6503 33H71.3513L72.4533 27.357C72.7193 26.027 72.3203 25.343 71.3133 25.343C70.2683 25.343 69.2043 26.122 68.9003 27.68L67.8553 33H65.5753L66.6583 27.357C66.9243 26.027 66.5253 25.343 65.5183 25.343C64.4353 25.343 63.3903 26.16 63.0863 27.737L62.0603 33ZM84.0353 19.7H86.1633L83.5793 33H81.2803L83.4463 21.847L80.4063 22.816L80.7863 20.802L84.0353 19.7ZM90.4745 33.19C87.6055 33.19 85.8005 31.442 86.3325 28.725L87.2635 23.899C87.7955 21.087 89.6195 19.51 92.4125 19.51C95.1295 19.51 96.9915 21.296 96.4785 23.975L95.5285 28.801C94.9585 31.784 93.0965 33.19 90.4745 33.19ZM92.2035 21.505C90.7975 21.505 89.8855 22.474 89.6005 23.975L88.6695 28.744C88.3845 30.264 89.0685 31.195 90.6455 31.195C92.0325 31.195 92.9065 30.226 93.1915 28.744L94.1225 23.994C94.4075 22.474 93.7805 21.505 92.2035 21.505Z" fill="#444444"/>
<path d="M132.31 46.8H122.76L117.26 75H109.46L114.96 46.8H105.16L106.46 40H133.61L132.31 46.8Z" fill="#444444"/>
<path d="M63.1679 75L69.9679 40H77.7679L72.2679 68.2H86.7179L85.4179 75H63.1679ZM88.6093 75L95.4093 40H103.209L96.4093 75H88.6093Z" fill="#444444"/>
<path d="M18.9805 75.5C10.4305 75.5 5.68048 70.25 7.23048 62.35L9.13048 52.5C10.7805 44.05 16.0305 39.5 23.4305 39.5C31.4305 39.5 35.5805 44.2 34.9805 51H30.0305C30.3805 46.35 28.2805 43.75 23.3305 43.75C17.7805 43.75 15.1805 47.25 14.1305 52.6L12.2305 62.45C11.1805 67.8 13.6805 71.25 19.1805 71.25C23.7305 71.25 26.3305 68.9 27.6805 64H32.6805C30.8305 71.35 26.2305 75.5 18.9805 75.5ZM49.8957 43.75C45.7457 43.75 43.8957 45.6 43.3957 48.3C42.7957 51.4 44.0457 52.6 47.7457 54.1L52.5957 56.2C57.6457 58.3 59.2457 61.7 58.2457 66.7C57.1457 72.15 53.3457 75.5 46.0957 75.5C38.0957 75.5 33.5457 71.95 34.1457 64.85H39.1457C38.9457 69.2 41.0457 71.25 46.0957 71.25C50.1457 71.25 52.2957 69.6 52.9457 66.2C53.4957 63.15 52.5957 61.5 48.3957 59.8L44.2957 58.15C39.4957 56.2 37.1957 53.3 38.1957 47.95C39.0457 43.15 42.9957 39.5 50.0457 39.5C57.6957 39.5 61.5457 43.35 60.5957 50.2H55.6457C56.1957 45.85 54.4457 43.75 49.8957 43.75Z" fill="#444444"/>
<defs>
<linearGradient id="paint0_linear_37_3" x1="130" y1="77" x2="155.5" y2="16" gradientUnits="userSpaceOnUse">
<stop offset="0.196169" stop-color="#444444"/>
<stop offset="0.664938" stop-color="#FF8A00"/>
<stop offset="1" stop-color="#FFC700"/>
</linearGradient>
</defs>
</svg>
