<svg width="164" height="69" viewBox="0 0 164 69" fill="none" xmlns="http://www.w3.org/2000/svg">
<path d="M116.89 17.1205L98.6913 12.2916" stroke="#FF7263" stroke-width="6"/>
<path d="M116.571 9.68538L110.668 2.10834" stroke="#FF7263" stroke-width="6"/>
<path d="M139.5 55.5H150.5L151.5 46L153.116 38.567C153.7 35.8795 154.783 33.3254 156.309 31.037L158.591 27.6133C160.162 25.2573 161 22.489 161 19.6573V19.6573C161 17.2575 160.398 14.896 159.249 12.7892L159.083 12.4851C158.365 11.1685 157.452 9.95254 156.392 8.89209V8.89209C153.581 6.08116 149.802 4.39008 145.831 4.19156L142 4L137.001 4.2631C134.062 4.41781 131.228 5.40893 128.832 7.11982L128.685 7.22464C126.598 8.71581 124.935 10.725 123.86 13.0544V13.0544C122.964 14.995 122.5 17.1069 122.5 19.2442V20" stroke="url(#paint0_linear_101_703)" stroke-width="6"/>
<path d="M69.1105 58.5L74.7605 22.75H88.1105L84.0605 48.3H96.1105L94.5105 58.5H69.1105ZM97.7469 58.5L103.397 22.75H116.847L111.197 58.5H97.7469ZM122.478 58.5L126.478 32.95H117.828L119.478 22.75H150.178L148.528 32.95H139.878L135.878 58.5H122.478Z" fill="#ECECEC"/>
<path d="M22.1571 58.49C11.1811 58.49 5.05615 51.483 5.05615 40.703V40.311C5.05615 29.776 12.3081 22.426 22.0591 22.426C30.0951 22.426 36.3181 26.444 37.1021 34.676H30.4871C29.7521 30.021 27.1551 27.62 22.1081 27.62C15.9341 27.62 11.9161 32.422 11.9161 40.262V40.654C11.9161 48.543 15.6891 53.198 22.1571 53.198C27.0081 53.198 30.4381 50.748 31.1241 45.799H37.4941C36.4651 54.227 30.4871 58.49 22.1571 58.49ZM53.8215 58.49C44.2665 58.49 40.2485 53.737 39.7585 47.122H46.0305C46.4715 50.65 47.8925 53.59 53.8215 53.59C57.6925 53.59 60.4365 51.434 60.4365 48.2C60.4365 44.966 58.8195 43.741 53.1355 42.81C44.7565 41.683 40.7875 39.135 40.7875 32.569C40.7875 26.836 45.6875 22.524 52.9885 22.524C60.5345 22.524 65.0425 25.954 65.7285 32.667H59.7505C59.1135 28.992 57.0065 27.424 52.9885 27.424C49.0195 27.424 46.9615 29.335 46.9615 32.03C46.9615 34.872 48.1375 36.293 54.2135 37.175C62.4455 38.302 66.7085 40.654 66.7085 47.661C66.7085 53.737 61.5635 58.49 53.8215 58.49Z" fill="#C4C4C4"/>
<defs>
<linearGradient id="paint0_linear_101_703" x1="164.967" y1="-0.336876" x2="123.747" y2="63.1605" gradientUnits="userSpaceOnUse">
<stop stop-color="#FF7263"/>
<stop offset="0.141308" stop-color="#FFC2BC"/>
<stop offset="0.370484" stop-color="#FF7263"/>
<stop offset="1" stop-color="#FF7263"/>
</linearGradient>
</defs>
</svg>
