<svg width="176" height="93" viewBox="0 0 176 93" fill="none" xmlns="http://www.w3.org/2000/svg">
<path d="M99.2873 80.6759L99.2004 80.169C99.0957 79.5581 99.5662 79 100.186 79H106.814C107.434 79 107.904 79.5581 107.8 80.169L107.713 80.6759C107.384 82.5962 105.719 84 103.77 84H103.23C101.281 84 99.6165 82.5962 99.2873 80.6759Z" fill="#444444"/>
<path d="M96.5071 76.2747L95.3642 72.2747C95.1817 71.6359 95.6614 71 96.3257 71H111.674C112.339 71 112.818 71.6359 112.636 72.2747L111.493 76.2747C111.37 76.704 110.976 77 110.53 77H97.4702C97.0237 77 96.6297 76.704 96.5071 76.2747Z" fill="#444444"/>
<path d="M82.7149 18.9818L76.2659 13.4671" stroke="#EB8208" stroke-width="6"/>
<path d="M82.2629 26.0384L66 23.2962" stroke="#EB8208" stroke-width="6"/>
<path d="M94.5 65.7499L113.062 65.75C113.589 65.75 114.026 65.3403 114.06 64.814L114.711 54.6592C114.846 52.5554 115.312 50.4861 116.093 48.528L121.247 35.6082C122.96 31.3159 122.634 26.4789 120.362 22.4548V22.4548C118.223 18.6665 114.569 15.9715 110.318 15.0473L110.04 14.9871C107.037 14.3342 103.942 14.2215 100.9 14.654L100.493 14.7118C92.0496 15.9122 86.6243 24.3093 89 32.5V32.5" stroke="url(#paint0_linear_64_336)" stroke-width="6.5"/>
<path d="M28.6423 68.527C25.6036 69.1863 22.866 69.516 20.4293 69.516C17.9926 69.516 16.0433 69.215 14.5813 68.613C13.1193 68.011 11.9726 67.0507 11.1413 65.732C10.31 64.4133 9.73664 62.8653 9.42131 61.088C9.10597 59.3107 8.94831 57.0747 8.94831 54.38C8.94831 48.7327 9.73664 44.8053 11.3133 42.598C12.9186 40.362 15.857 39.244 20.1283 39.244C22.5936 39.244 25.446 39.631 28.6853 40.405L28.5133 45.135C25.6753 44.705 23.3103 44.49 21.4183 44.49C19.555 44.49 18.222 44.748 17.4193 45.264C16.6166 45.7513 16.0146 46.6973 15.6133 48.102C15.2406 49.5067 15.0543 51.9003 15.0543 55.283C15.0543 58.6657 15.4413 61.0163 16.2153 62.335C17.018 63.625 18.5946 64.27 20.9453 64.27C23.3246 64.27 25.8473 64.0693 28.5133 63.668L28.6423 68.527ZM40.724 44.404C37.5993 44.404 36.037 45.436 36.037 47.5C36.037 48.4173 36.424 49.1197 37.198 49.607C37.972 50.0943 39.778 50.7967 42.616 51.714C45.4826 52.6313 47.4893 53.6777 48.636 54.853C49.7826 55.9997 50.356 57.777 50.356 60.185C50.356 63.2523 49.4243 65.5743 47.561 67.151C45.6976 68.7277 43.261 69.516 40.251 69.516C38.015 69.516 35.2773 69.172 32.038 68.484L30.49 68.183L31.092 63.582C34.9333 64.098 37.8716 64.356 39.907 64.356C42.9456 64.356 44.465 63.0947 44.465 60.572C44.465 59.6547 44.1066 58.938 43.39 58.422C42.702 57.906 41.3116 57.347 39.219 56.745C35.8936 55.799 33.543 54.681 32.167 53.391C30.8196 52.0723 30.146 50.252 30.146 47.93C30.146 45.006 31.0346 42.8273 32.812 41.394C34.5893 39.9607 37.026 39.244 40.122 39.244C42.2433 39.244 44.938 39.5307 48.206 40.104L49.754 40.405L49.281 45.092C45.239 44.6333 42.3866 44.404 40.724 44.404ZM71.1746 69H53.4746L61.3246 35H68.2246L61.7746 63H72.5246L71.1746 69ZM73.3184 69L81.1684 35H88.0684L80.2184 69H73.3184ZM89.0973 41L90.4973 35H112.397L110.997 41H103.447L96.9973 69H90.0973L96.5473 41H89.0973Z" fill="#444444"/>
<path d="M134.03 60.768L134.352 59.41H140.54L140.218 60.768H137.894L135.99 69H134.436L136.326 60.768H134.03ZM140.253 66.858C140.253 67.166 140.36 67.4087 140.575 67.586C140.79 67.7633 141.056 67.852 141.373 67.852C142.045 67.852 142.708 67.796 143.361 67.684L143.725 67.614L143.571 68.762C142.722 69.0233 141.863 69.154 140.995 69.154C139.483 69.154 138.727 68.398 138.727 66.886C138.727 65.5607 139.021 64.4173 139.609 63.456C139.908 62.9707 140.309 62.5833 140.813 62.294C141.317 62.0047 141.891 61.86 142.535 61.86C144.066 61.86 144.831 62.4993 144.831 63.778C144.831 64.6367 144.523 65.234 143.907 65.57C143.3 65.906 142.306 66.074 140.925 66.074H140.337C140.281 66.2793 140.253 66.5407 140.253 66.858ZM141.177 64.926C141.961 64.926 142.516 64.842 142.843 64.674C143.17 64.506 143.333 64.212 143.333 63.792C143.333 63.3253 143.044 63.092 142.465 63.092C141.494 63.092 140.846 63.7033 140.519 64.926H141.177ZM149.853 61.846C150.423 61.846 150.843 62.0187 151.113 62.364C151.393 62.7 151.533 63.1153 151.533 63.61C151.533 64.0953 151.435 64.73 151.239 65.514L150.441 69H148.929L149.713 65.626C149.881 64.842 149.965 64.31 149.965 64.03C149.965 63.75 149.909 63.5353 149.797 63.386C149.695 63.2367 149.522 63.162 149.279 63.162C149.046 63.162 148.789 63.26 148.509 63.456C148.229 63.6427 147.996 63.834 147.809 64.03L147.543 64.324L146.465 69H144.953L146.563 62H148.019L147.865 62.924C147.94 62.84 148.038 62.742 148.159 62.63C148.281 62.5087 148.514 62.35 148.859 62.154C149.214 61.9487 149.545 61.846 149.853 61.846Z" fill="#8C8C8C"/>
<path d="M137.48 57L139.706 47.41H141.26L139.048 57H137.48ZM142.69 50.784H141.556L142.942 47.41H144.454L142.69 50.784ZM148.053 52.072C148.053 51.4653 147.806 51.162 147.311 51.162C147.124 51.162 146.891 51.26 146.611 51.456C146.331 51.6427 146.098 51.834 145.911 52.03L145.645 52.324L144.567 57H143.055L144.665 50H146.121L145.967 50.91C145.995 50.882 146.028 50.8447 146.065 50.798C146.112 50.7513 146.205 50.6673 146.345 50.546C146.494 50.4153 146.648 50.3033 146.807 50.21C147.199 49.9673 147.586 49.846 147.969 49.846C148.361 49.846 148.678 49.9393 148.921 50.126C149.173 50.3033 149.327 50.4853 149.383 50.672L149.481 50.952C149.565 50.868 149.677 50.7653 149.817 50.644C149.966 50.5227 150.237 50.3593 150.629 50.154C151.021 49.9487 151.385 49.846 151.721 49.846C152.29 49.846 152.71 50.0187 152.981 50.364C153.252 50.7 153.387 51.1013 153.387 51.568C153.387 52.0347 153.298 52.688 153.121 53.528L152.323 57H150.797L151.609 53.626C151.777 52.842 151.861 52.338 151.861 52.114C151.861 51.4793 151.628 51.162 151.161 51.162C150.965 51.162 150.732 51.246 150.461 51.414C150.19 51.582 149.971 51.75 149.803 51.918L149.551 52.17C149.504 52.674 149.43 53.1267 149.327 53.528L148.529 57H147.017L147.801 53.626C147.969 52.842 148.053 52.324 148.053 52.072Z" fill="#8C8C8C"/>
<path d="M146.137 45H141.209L143.435 35.41H144.989L143.099 43.642H146.445L146.137 45ZM147.043 45L148.653 38H150.165L148.555 45H147.043ZM148.877 36.964L149.255 35.326H150.795L150.417 36.964H148.877ZM151.727 45H150.215L152.497 35.088H154.009L152.707 40.716L153.365 40.646L155.479 38.014H157.173L154.499 41.318L155.605 45H154.037L153.141 41.906L152.427 41.962L151.727 45ZM158.339 42.858C158.339 43.166 158.446 43.4087 158.661 43.586C158.876 43.7633 159.142 43.852 159.459 43.852C160.131 43.852 160.794 43.796 161.447 43.684L161.811 43.614L161.657 44.762C160.808 45.0233 159.949 45.154 159.081 45.154C157.569 45.154 156.813 44.398 156.813 42.886C156.813 41.5607 157.107 40.4173 157.695 39.456C157.994 38.9707 158.395 38.5833 158.899 38.294C159.403 38.0047 159.977 37.86 160.621 37.86C162.152 37.86 162.917 38.4993 162.917 39.778C162.917 40.6367 162.609 41.234 161.993 41.57C161.386 41.906 160.392 42.074 159.011 42.074H158.423C158.367 42.2793 158.339 42.5407 158.339 42.858ZM159.263 40.926C160.047 40.926 160.602 40.842 160.929 40.674C161.256 40.506 161.419 40.212 161.419 39.792C161.419 39.3253 161.13 39.092 160.551 39.092C159.58 39.092 158.932 39.7033 158.605 40.926H159.263Z" fill="#8C8C8C"/>
<path d="M124 76L137 22" stroke="#8C8C8C" stroke-width="1.5"/>
<defs>
<linearGradient id="paint0_linear_64_336" x1="102.5" y1="72" x2="137.767" y2="2.43027" gradientUnits="userSpaceOnUse">
<stop offset="0.0890182" stop-color="#444444"/>
<stop offset="0.658464" stop-color="#FF8A00"/>
<stop offset="1" stop-color="#FFC700"/>
</linearGradient>
</defs>
</svg>
