<svg width="176" height="93" viewBox="0 0 176 93" fill="none" xmlns="http://www.w3.org/2000/svg">
<path d="M124.112 90.5H121.888C120.167 90.5 118.671 89.3185 118.273 87.6443C118.134 87.0605 118.576 86.5 119.176 86.5H126.824C127.424 86.5 127.867 87.0605 127.728 87.6443C127.329 89.3185 125.833 90.5 124.112 90.5Z" fill="#444444"/>
<path d="M114.749 83.3714L113.549 80.3714C113.286 79.7145 113.77 79 114.477 79H132.523C133.23 79 133.714 79.7145 133.452 80.3714L132.252 83.3714C132.1 83.751 131.731 84 131.322 84H115.678C115.269 84 114.9 83.751 114.749 83.3714Z" fill="#444444"/>
<path d="M85.0992 10.6718L98.4303 20.6395L101.792 17.1021L88.4609 7.13436L85.0992 10.6718Z" fill="#FF9401"/>
<path d="M99.1326 7.70345L101.346 15.278L106.074 14.18L103.861 6.6054L99.1326 7.70345Z" fill="#FF9401"/>
<path d="M111 72.548H135.241C135.763 72.548 136.197 72.1474 136.238 71.6277L137.198 59.6237C137.384 57.2989 137.976 55.0245 138.945 52.9034L143.964 41.9254C146.506 36.3638 146.297 29.9323 143.397 24.548V24.548V24.548C140.562 19.2832 135.066 16 129.086 16H120.5C109.454 16 100.5 24.9543 100.5 36V37" stroke="url(#paint0_linear_37_3)" stroke-width="5"/>
<path d="M9.71 32V18.7H11.192V30.708H17.538V32H9.71ZM19.4702 20.923C18.8812 20.923 18.4252 20.505 18.4252 19.954C18.4252 19.403 18.8812 18.985 19.4702 18.985C20.0972 18.985 20.5342 19.403 20.5342 19.954C20.5342 20.505 20.0972 20.923 19.4702 20.923ZM18.7292 32V22.728H20.2302V32H18.7292ZM28.9733 32L25.8573 27.63L24.2803 29.416V32H22.7793V18.13H24.2803V27.478L28.4983 22.728H30.1893L26.8453 26.509L30.8163 32H28.9733ZM38.7818 29.226C38.5728 31.145 37.1478 32.19 35.0388 32.19C32.6828 32.19 31.1058 30.803 31.1058 28.086V26.642C31.1058 23.925 32.6638 22.538 35.0578 22.538C37.3568 22.538 38.8388 23.944 38.8388 26.68V27.535H32.6448C32.6448 27.839 32.6638 28.143 32.6828 28.428C32.7588 29.986 33.5188 30.936 35.1148 30.936C35.2668 30.936 35.3998 30.936 35.5328 30.917C36.6158 30.784 37.2238 30.195 37.3568 29.226H38.7818ZM32.6448 26.452L32.7588 26.585H37.4328C37.3568 24.647 36.6538 23.773 35.0578 23.773C33.4238 23.773 32.6638 24.818 32.6448 26.452ZM45.4352 32V18.7H46.9172V32H45.4352ZM49.6116 22.785H48.7566L49.4596 18.7H51.0556L49.6116 22.785ZM54.1608 26.718V32H52.6598V22.728H54.1608V24.495C54.7308 23.184 55.8138 22.538 57.1248 22.538C58.6068 22.538 59.5568 23.184 59.8988 24.514C60.5068 23.203 61.6468 22.538 63.0528 22.538C64.9718 22.538 66.0168 23.602 66.0168 25.844V32H64.5158V26.148C64.5158 24.609 63.9458 23.83 62.5588 23.83C61.1908 23.83 60.0888 24.894 60.0888 26.718V32H58.5878V26.148C58.5878 24.609 58.0178 23.83 56.6308 23.83C55.2628 23.83 54.1608 24.894 54.1608 26.718ZM74.5876 18.7H75.9176V32H74.4356V20.106L71.6426 21.018V19.726L74.5876 18.7ZM82.9252 32.19C80.2272 32.19 78.6692 30.689 78.6692 28.048V22.671C78.6692 20.03 80.2272 18.51 82.9252 18.51C85.6612 18.51 87.2192 20.011 87.2192 22.671V28.029C87.2192 30.689 85.6612 32.19 82.9252 32.19ZM82.9252 19.802C81.0252 19.802 80.1892 20.942 80.1892 22.69V28.029C80.1892 29.777 81.0252 30.898 82.9252 30.898C84.8632 30.898 85.6992 29.758 85.6992 28.029V22.671C85.6992 20.923 84.8632 19.802 82.9252 19.802Z" fill="#444444"/>
<path d="M132.31 46.8H122.76L117.26 75H109.46L114.96 46.8H105.16L106.46 40H133.61L132.31 46.8Z" fill="#444444"/>
<path d="M63.1679 75L69.9679 40H77.7679L72.2679 68.2H86.7179L85.4179 75H63.1679ZM88.6093 75L95.4093 40H103.209L96.4093 75H88.6093Z" fill="#444444"/>
<path d="M18.9805 75.5C10.4305 75.5 5.68048 70.25 7.23048 62.35L9.13048 52.5C10.7805 44.05 16.0305 39.5 23.4305 39.5C31.4305 39.5 35.5805 44.2 34.9805 51H30.0305C30.3805 46.35 28.2805 43.75 23.3305 43.75C17.7805 43.75 15.1805 47.25 14.1305 52.6L12.2305 62.45C11.1805 67.8 13.6805 71.25 19.1805 71.25C23.7305 71.25 26.3305 68.9 27.6805 64H32.6805C30.8305 71.35 26.2305 75.5 18.9805 75.5ZM49.8957 43.75C45.7457 43.75 43.8957 45.6 43.3957 48.3C42.7957 51.4 44.0457 52.6 47.7457 54.1L52.5957 56.2C57.6457 58.3 59.2457 61.7 58.2457 66.7C57.1457 72.15 53.3457 75.5 46.0957 75.5C38.0957 75.5 33.5457 71.95 34.1457 64.85H39.1457C38.9457 69.2 41.0457 71.25 46.0957 71.25C50.1457 71.25 52.2957 69.6 52.9457 66.2C53.4957 63.15 52.5957 61.5 48.3957 59.8L44.2957 58.15C39.4957 56.2 37.1957 53.3 38.1957 47.95C39.0457 43.15 42.9957 39.5 50.0457 39.5C57.6957 39.5 61.5457 43.35 60.5957 50.2H55.6457C56.1957 45.85 54.4457 43.75 49.8957 43.75Z" fill="#444444"/>
<defs>
<linearGradient id="paint0_linear_37_3" x1="130" y1="77" x2="155.5" y2="16" gradientUnits="userSpaceOnUse">
<stop offset="0.196169" stop-color="#444444"/>
<stop offset="0.664938" stop-color="#FF8A00"/>
<stop offset="1" stop-color="#FFC700"/>
</linearGradient>
</defs>
</svg>
