<svg width="122" height="82" viewBox="0 0 122 82" fill="none" xmlns="http://www.w3.org/2000/svg">
<path d="M94.5 51L93 57H101.5V51H94.5Z" fill="#8E5F29"/>
<path d="M95.9999 54.0001H103.67C104.151 54.0001 104.564 53.6573 104.653 53.1844L106.984 40.7501C107.324 38.941 108.074 37.2341 109.179 35.7616L114.417 28.7772C115.779 26.9616 116.609 24.803 116.814 22.5428L117.141 18.9538C117.374 16.3813 116.805 13.7997 115.511 11.5643V11.5643C113.338 7.81101 109.33 5.50003 104.993 5.50003H97.9381C96.981 5.50003 96.0255 5.57911 95.0814 5.73646V5.73646C88.1558 6.89073 84.1291 14.2144 86.8649 20.6806L87 21" stroke="url(#paint0_linear_71_181)" stroke-width="6"/>
<path d="M80.8489 20.8893L80.5926 14.812L62.5389 10.0613L61.3067 15.9547L80.8489 20.8893Z" fill="#EB8208"/>
<path d="M75.8016 1.2703L71.5405 4.99089L79.9794 13.5807L82.3464 8.22841L75.8016 1.2703Z" fill="#EB8208"/>
<rect x="2" y="61" width="106" height="20" rx="8" fill="#FFE8CE"/>
<rect x="2" y="61" width="106" height="20" rx="8" fill="#E7E7E7"/>
<path d="M75.613 65.28V76.5H74.304V66.742L71.414 68.646L70.819 67.66L74.389 65.28H75.613ZM81.8957 65.093C82.825 65.093 83.5787 65.2687 84.1567 65.62C85.3807 66.3453 85.9927 68.1587 85.9927 71.06C85.9927 73.1113 85.6527 74.562 84.9727 75.412C84.2927 76.2507 83.2727 76.67 81.9127 76.67C80.5527 76.67 79.527 76.2563 78.8357 75.429C78.1557 74.5903 77.8157 73.1057 77.8157 70.975C77.8157 68.833 78.15 67.32 78.8187 66.436C79.4987 65.5407 80.5244 65.093 81.8957 65.093ZM81.9127 66.266C81.2667 66.266 80.7567 66.402 80.3827 66.674C79.578 67.2293 79.1757 68.697 79.1757 71.077C79.1757 72.7543 79.3967 73.916 79.8387 74.562C80.2807 75.1967 80.972 75.514 81.9127 75.514C82.8534 75.514 83.5447 75.191 83.9867 74.545C84.4287 73.899 84.6497 72.7033 84.6497 70.958C84.6497 69.2013 84.4344 67.983 84.0037 67.303C83.5844 66.6117 82.8874 66.266 81.9127 66.266Z" fill="#444444"/>
<path d="M49.445 76.5V64.736H50.754V76.5H49.445ZM52.3196 68.187L53.0676 64.464H54.4106L53.3226 68.187H52.3196ZM56.1415 76.5H54.8665V68H56.1245V68.595C56.9745 68.085 57.8019 67.83 58.6065 67.83C59.6605 67.83 60.3972 68.119 60.8165 68.697C61.1905 68.4703 61.6722 68.272 62.2615 68.102C62.8622 67.9207 63.3892 67.83 63.8425 67.83C64.9759 67.83 65.7352 68.136 66.1205 68.748C66.5172 69.3487 66.7155 70.4367 66.7155 72.012V76.5H65.4405V72.046C65.4405 70.8673 65.3272 70.0627 65.1005 69.632C64.8739 69.19 64.3922 68.969 63.6555 68.969C63.2815 68.969 62.8962 69.0257 62.4995 69.139C62.1029 69.241 61.7969 69.343 61.5815 69.445L61.2585 69.598C61.4059 69.972 61.4795 70.7993 61.4795 72.08V76.5H60.2045V72.114C60.2045 70.89 60.0912 70.0627 59.8645 69.632C59.6492 69.19 59.1675 68.969 58.4195 68.969C58.0569 68.969 57.6829 69.0257 57.2975 69.139C56.9235 69.241 56.6345 69.343 56.4305 69.445L56.1415 69.598V76.5Z" fill="#444444"/>
<path d="M24.1281 76.5H17.6511V64.736H18.9601V75.327H24.1281V76.5ZM25.5648 76.5V68H26.8398V76.5H25.5648ZM25.5648 66.079V64.6H26.8398V66.079H25.5648ZM30.5586 76.5H29.2836V64.294H30.5586V71.502L31.8846 71.434L34.3156 68H35.7606L32.9896 71.91L35.8796 76.5H34.4346L31.9016 72.556L30.5586 72.607V76.5ZM42.9825 75.446L43.4755 75.395L43.5095 76.398C42.2175 76.5793 41.1125 76.67 40.1945 76.67C38.9705 76.67 38.1035 76.3187 37.5935 75.616C37.0835 74.902 36.8285 73.797 36.8285 72.301C36.8285 69.3203 38.0128 67.83 40.3815 67.83C41.5262 67.83 42.3818 68.153 42.9485 68.799C43.5152 69.4337 43.7985 70.4367 43.7985 71.808L43.7305 72.777H38.1205C38.1205 73.7177 38.2905 74.4147 38.6305 74.868C38.9705 75.3213 39.5598 75.548 40.3985 75.548C41.2485 75.548 42.1098 75.514 42.9825 75.446ZM42.5235 71.757C42.5235 70.7143 42.3535 69.9777 42.0135 69.547C41.6848 69.1163 41.1408 68.901 40.3815 68.901C39.6335 68.901 39.0668 69.1277 38.6815 69.581C38.3075 70.0343 38.1148 70.7597 38.1035 71.757H42.5235Z" fill="#444444"/>
<path d="M11.28 68.72L6.478 71.618L11.28 74.502L10.51 75.636L5.134 72.29V70.932L10.552 67.586L11.28 68.72ZM90.1658 76.924L96.1018 64.632L97.3338 65.206L91.4118 77.484L90.1658 76.924ZM104.944 70.932V72.29L99.5684 75.636L98.7984 74.516L103.586 71.618L98.7984 68.748L99.5264 67.586L104.944 70.932Z" fill="#444444"/>
<path d="M74 57H67.5L75.5 23.5H82L74 57Z" fill="#444444"/>
<path d="M91 57H84L90.5 29.5H83L84.5 23.5H106.5L105 29.5H97.5L91 57Z" fill="#444444"/>
<path d="M47.5 57L55.5 23.5H62L55.5 51H66.5L65.111 57H47.5Z" fill="#444444"/>
<path d="M49 25L48 30C31 25.9999 31 33.4999 34 34.9999C44.7 39.1869 46.31 39.4782 47.6905 43.1231C47.9046 43.6886 47.9098 44.3157 47.7437 44.897C45.998 51.0079 45.9553 51.1786 45 55C44.2235 58.1059 32 57 26 57V51C34 51 39.5 51.5 41.5 48C43.3059 44.8395 37.5 43.5 34.5 42.4999C31.1667 41.8333 24.5 38 27 30C29.531 21.9009 39.5 21.5 49 25Z" fill="url(#paint1_linear_71_181)"/>
<path d="M24.5 24.5L24 31C24.0385 30.5 16.4242 29.739 13 30.5C8.50001 31.5 8.5 42 9.5 47.5C10.2211 51.4661 18 51 24 51V57L13.5 57C0.41374 57 0.824247 43.4733 2.5 32.9999C4.49999 20.5 16.5 23 24.5 24.5Z" fill="url(#paint2_linear_71_181)"/>
<defs>
<linearGradient id="paint0_linear_71_181" x1="83.5" y1="76.5" x2="131.229" y2="-8.10744" gradientUnits="userSpaceOnUse">
<stop stop-color="#444444"/>
<stop offset="0.658464" stop-color="#FF8A00"/>
<stop offset="1" stop-color="#FFC700"/>
</linearGradient>
<linearGradient id="paint1_linear_71_181" x1="25.3292" y1="22.9082" x2="25.3292" y2="57.1913" gradientUnits="userSpaceOnUse">
<stop stop-color="#444444"/>
<stop offset="1" stop-color="#8C8C8C"/>
</linearGradient>
<linearGradient id="paint2_linear_71_181" x1="25.3292" y1="22.9082" x2="25.3292" y2="57.1913" gradientUnits="userSpaceOnUse">
<stop stop-color="#444444"/>
<stop offset="1" stop-color="#8C8C8C"/>
</linearGradient>
</defs>
</svg>
