<svg width="126" height="79" viewBox="0 0 126 79" fill="none" xmlns="http://www.w3.org/2000/svg">
<path d="M98.5 52L97 58H105.5V52H98.5Z" fill="#8E5F29"/>
<path d="M99.9999 55.0001H107.67C108.151 55.0001 108.564 54.6573 108.653 54.1844L110.984 41.7501C111.324 39.941 112.074 38.2341 113.179 36.7616L118.417 29.7772C119.779 27.9616 120.609 25.803 120.814 23.5428L121.141 19.9538C121.374 17.3813 120.805 14.7997 119.511 12.5643V12.5643C117.338 8.81101 113.33 6.50003 108.993 6.50003H100.368C99.4578 6.50003 98.5495 6.58193 97.6541 6.74474V6.74474C92.3765 7.70428 88.9449 12.8468 90.0844 18.0884L90.5 20" stroke="url(#paint0_linear_72_214)" stroke-width="6"/>
<path d="M84.7188 20.453L84.4625 14.3756L66.4088 9.625L65.1765 15.5183L84.7188 20.453Z" fill="#EB8208"/>
<path d="M79.6715 0.83396L75.4104 4.55455L83.8492 13.1444L86.2163 7.79207L79.6715 0.83396Z" fill="#EB8208"/>
<path d="M77.885 66.28V77.5H75.998V68.422L73.363 70.122L72.496 68.711L76.151 66.28H77.885ZM80.7167 67.47C81.4307 66.552 82.496 66.093 83.9127 66.093C85.3294 66.093 86.389 66.5463 87.0917 67.453C87.7944 68.3597 88.1457 69.8613 88.1457 71.958C88.1457 74.0433 87.7887 75.5223 87.0747 76.395C86.372 77.2563 85.3124 77.687 83.8957 77.687C82.4904 77.687 81.4307 77.2563 80.7167 76.395C80.014 75.5337 79.6627 74.0603 79.6627 71.975C79.6627 69.8783 80.014 68.3767 80.7167 67.47ZM85.6637 68.677C85.3124 68.0537 84.7287 67.742 83.9127 67.742C83.0967 67.742 82.5074 68.0537 82.1447 68.677C81.7934 69.289 81.6177 70.3713 81.6177 71.924C81.6177 73.4767 81.799 74.5533 82.1617 75.154C82.5357 75.7433 83.1194 76.038 83.9127 76.038C84.7174 76.038 85.2954 75.7433 85.6467 75.154C86.0094 74.5533 86.1907 73.4767 86.1907 71.924C86.1907 70.3713 86.015 69.289 85.6637 68.677Z" fill="#444444"/>
<path d="M51.343 77.5V65.855H53.23V77.5H51.343ZM54.5994 69.731L55.3644 65.736H57.3024L56.0104 69.731H54.5994ZM59.3812 77.5H57.5282V69H59.3642V69.527C60.1689 69.051 60.9055 68.813 61.5742 68.813C62.5602 68.813 63.2799 69.0907 63.7332 69.646C64.7645 69.0907 65.7902 68.813 66.8102 68.813C67.8302 68.813 68.5499 69.1303 68.9692 69.765C69.3885 70.3883 69.5982 71.448 69.5982 72.944V77.5H67.7622V72.995C67.7622 72.077 67.6659 71.4253 67.4732 71.04C67.2919 70.6547 66.9065 70.462 66.3172 70.462C65.8072 70.462 65.2575 70.5753 64.6682 70.802L64.3792 70.921C64.4699 71.1477 64.5152 71.873 64.5152 73.097V77.5H62.6792V73.131C62.6792 72.1223 62.5885 71.4253 62.4072 71.04C62.2259 70.6547 61.8292 70.462 61.2172 70.462C60.6505 70.462 60.1235 70.5753 59.6362 70.802L59.3812 70.904V77.5Z" fill="#444444"/>
<path d="M27.0771 77.5H20.5491V65.855H22.4361V75.817H27.0771V77.5ZM28.3964 77.5V69H30.2494V77.5H28.3964ZM28.3964 67.555V65.6H30.2494V67.555H28.3964ZM34.35 77.5H32.497V65.464H34.35V72.417L35.404 72.315L37.41 69H39.484L37.036 72.978L39.62 77.5H37.529L35.455 73.913L34.35 74.032V77.5ZM46.8498 75.97L47.3258 75.919L47.3598 77.296C46.0678 77.5567 44.9231 77.687 43.9258 77.687C42.6678 77.687 41.7611 77.3413 41.2058 76.65C40.6618 75.9587 40.3898 74.8537 40.3898 73.335C40.3898 70.3203 41.6194 68.813 44.0788 68.813C46.4588 68.813 47.6488 70.1107 47.6488 72.706L47.5298 74.032H42.2598C42.2711 74.7347 42.4241 75.2503 42.7188 75.579C43.0134 75.9077 43.5631 76.072 44.3678 76.072C45.1724 76.072 45.9998 76.038 46.8498 75.97ZM45.8298 72.604C45.8298 71.7653 45.6938 71.1817 45.4218 70.853C45.1611 70.513 44.7134 70.343 44.0788 70.343C43.4441 70.343 42.9794 70.5187 42.6848 70.87C42.4014 71.2213 42.2541 71.7993 42.2428 72.604H45.8298Z" fill="#444444"/>
<path d="M12.28 69.72L7.478 72.618L12.28 75.502L11.51 76.636L6.134 73.29V71.932L11.552 68.586L12.28 69.72ZM93.1904 77.924L99.1264 65.632L100.358 66.206L94.4364 78.484L93.1904 77.924ZM107.969 71.932V73.29L102.593 76.636L101.823 75.516L106.611 72.618L101.823 69.748L102.551 68.586L107.969 71.932Z" fill="#444444"/>
<path d="M69.1746 58H51.4746L59.3246 24H66.2246L59.7746 52H70.5246L69.1746 58ZM71.3184 58L79.1684 24H86.0684L78.2184 58H71.3184ZM87.0973 30L88.4973 24H110.397L108.997 30H101.447L94.9973 58H88.0973L94.5473 30H87.0973Z" fill="#444444"/>
<path d="M23.575 53.804L23.719 56.972C20.423 57.644 17.463 57.98 14.839 57.98C12.215 57.98 10.087 57.628 8.455 56.924C6.855 56.188 5.623 55.052 4.759 53.516C3.863 52.012 3.239 50.284 2.887 48.332C2.567 46.348 2.407 43.884 2.407 40.94C2.407 37.964 2.567 35.484 2.887 33.5C3.239 31.516 3.863 29.756 4.759 28.22C5.623 26.684 6.839 25.564 8.407 24.86C10.007 24.156 12.103 23.804 14.695 23.804C15.975 23.804 17.367 23.9 18.871 24.092C20.375 24.252 21.991 24.508 23.719 24.86L23.575 27.98C20.375 27.404 17.495 27.116 14.935 27.116C13.175 27.116 11.735 27.372 10.615 27.884C9.495 28.364 8.599 29.164 7.927 30.284C7.287 31.372 6.839 32.796 6.583 34.556C6.359 36.316 6.247 38.46 6.247 40.988C6.247 43.516 6.343 45.548 6.535 47.084C6.759 48.62 7.175 49.996 7.783 51.212C8.391 52.46 9.271 53.356 10.423 53.9C11.607 54.412 13.335 54.668 15.607 54.668C17.847 54.668 20.503 54.38 23.575 53.804ZM37.7324 27.02C32.9324 27.02 30.5324 28.828 30.5324 32.444C30.5324 33.436 30.6444 34.268 30.8684 34.94C31.1244 35.58 31.5564 36.14 32.1644 36.62C32.8044 37.068 33.6684 37.452 34.7564 37.772C35.8444 38.092 37.2364 38.444 38.9324 38.828C40.6284 39.212 42.0524 39.628 43.2044 40.076C44.3884 40.524 45.3484 41.084 46.0844 41.756C46.8204 42.428 47.3484 43.244 47.6684 44.204C48.0204 45.164 48.1964 46.332 48.1964 47.708C48.1964 54.524 44.6604 57.932 37.5884 57.932C36.4044 57.932 35.0764 57.852 33.6044 57.692C32.1644 57.564 30.5644 57.372 28.8044 57.116L27.0764 56.876L27.4604 53.804C31.8444 54.38 35.1564 54.668 37.3964 54.668C42.1324 54.668 44.5004 52.444 44.5004 47.996C44.5004 47.1 44.3724 46.348 44.1164 45.74C43.8924 45.1 43.4924 44.572 42.9164 44.156C42.3724 43.708 41.6204 43.34 40.6604 43.052C39.7324 42.732 38.5484 42.428 37.1084 42.14C35.2524 41.756 33.6684 41.324 32.3564 40.844C31.0444 40.364 29.9724 39.772 29.1404 39.068C28.3084 38.332 27.7004 37.452 27.3164 36.428C26.9644 35.404 26.7884 34.156 26.7884 32.684C26.7884 26.732 30.3564 23.756 37.4924 23.756C39.8284 23.756 42.6284 23.996 45.8924 24.476L47.5244 24.716L47.1884 27.836C44.9484 27.58 43.0444 27.388 41.4764 27.26C39.9084 27.1 38.6604 27.02 37.7324 27.02Z" fill="url(#paint1_linear_72_214)"/>
<defs>
<linearGradient id="paint0_linear_72_214" x1="87.5" y1="77.5" x2="135.229" y2="-7.10744" gradientUnits="userSpaceOnUse">
<stop stop-color="#444444"/>
<stop offset="0.658464" stop-color="#FF8A00"/>
<stop offset="1" stop-color="#FFC700"/>
</linearGradient>
<linearGradient id="paint1_linear_72_214" x1="27.5" y1="24.5" x2="25.5" y2="58.5" gradientUnits="userSpaceOnUse">
<stop stop-color="#444444"/>
<stop offset="1" stop-color="#8C8C8C"/>
</linearGradient>
</defs>
</svg>
