<svg width="138" height="81" viewBox="0 0 138 81" fill="none" xmlns="http://www.w3.org/2000/svg">
<path d="M116.025 77.5001H115.006C113.278 77.5001 111.789 76.2846 111.442 74.5918C111.327 74.028 111.758 73.5001 112.333 73.5001H118.698C119.274 73.5001 119.705 74.028 119.589 74.5918C119.243 76.2846 117.753 77.5001 116.025 77.5001Z" fill="#444444"/>
<path d="M108.409 70.3252L107.377 67.3252C107.154 66.676 107.637 66.0001 108.323 66.0001H123.568C124.254 66.0001 124.737 66.676 124.513 67.3252L123.482 70.3252C123.343 70.729 122.962 71.0001 122.535 71.0001H109.356C108.929 71.0001 108.548 70.729 108.409 70.3252Z" fill="#444444"/>
<path d="M73.564 11.8581L87.4769 16.0803L88.9372 11.5408L75.0243 7.31863L73.564 11.8581Z" fill="#FF9401"/>
<path d="M83.6535 3.83553L87.9672 10.0191L91.3332 7.22545L87.0196 1.04193L83.6535 3.83553Z" fill="#FF9401"/>
<path d="M105.203 59.548H125.895C126.421 59.548 126.857 59.141 126.893 58.6166L127.748 46.1833C127.888 44.1462 128.339 42.1426 129.085 40.2421L133.875 28.0512C135.871 22.97 135.703 17.2936 133.411 12.339L133.045 11.548V11.548C130.628 6.32496 125.426 2.95437 119.671 2.88258L110.475 2.76787C99.4751 2.63066 91.195 12.7433 93.5 23.5V23.5" stroke="url(#paint0_linear_54_2)" stroke-width="5"/>
<path d="M31.672 78L33.848 66.8H35.784L33.928 76.32H38.872L38.552 78H31.672ZM42.3313 68.704C41.6113 68.704 41.1153 68.24 41.2593 67.536C41.3713 66.88 41.9473 66.512 42.6193 66.512C43.3073 66.512 43.8193 66.976 43.6913 67.664C43.5633 68.32 43.0033 68.704 42.3313 68.704ZM39.4833 78L41.0353 70.032H42.9713L41.4193 78H39.4833ZM48.7546 78L46.9786 74.672L45.7306 75.824L45.2986 78H43.3626L45.6346 66.32H47.5706L46.2426 73.216L49.6506 70.032H52.0026L48.4026 73.36L50.9466 78H48.7546ZM58.4081 75.6C57.7521 77.424 56.4721 78.16 54.7921 78.16C52.7761 78.16 51.1441 76.88 51.6081 74.512L51.8321 73.392C52.2961 71.104 53.7521 69.872 55.7841 69.872C58.1201 69.872 59.2721 71.392 58.8561 73.552L58.6801 74.464H53.6241C53.5921 74.672 53.5761 74.88 53.5601 75.072C53.5121 76.032 54.0241 76.544 54.9521 76.544C55.0001 76.544 55.0481 76.528 55.1121 76.528C55.8481 76.48 56.2321 76.176 56.5201 75.6H58.4081ZM53.8641 73.232L54.0401 73.28H57.0641C57.2401 72.048 56.8241 71.472 55.7201 71.472C54.6961 71.472 54.1201 72.144 53.8641 73.232ZM63.5533 78L65.7293 66.8H67.6653L65.4893 78H63.5533ZM69.6137 70.672H68.4297L69.7897 66.8H71.8217L69.6137 70.672ZM72.9455 78H71.0095L72.5615 70.032H74.4975L74.2415 71.376C74.9295 70.336 75.7935 69.872 76.8015 69.872C77.9215 69.872 78.6095 70.448 78.8335 71.376C79.5855 70.352 80.5775 69.872 81.6815 69.872C83.2815 69.872 84.0495 71.12 83.7295 72.72L82.7055 78H80.7695L81.6975 73.248C81.9215 72.128 81.5855 71.552 80.7375 71.552C79.8575 71.552 78.9615 72.208 78.7055 73.52L77.8255 78H75.9055L76.8175 73.248C77.0415 72.128 76.7055 71.552 75.8575 71.552C74.9455 71.552 74.0655 72.24 73.8095 73.568L72.9455 78ZM92.2508 66.8H94.0428L91.8668 78H89.9308L91.7548 68.608L89.1948 69.424L89.5148 67.728L92.2508 66.8ZM98.0733 78.16C95.6573 78.16 94.1373 76.688 94.5853 74.4L95.3693 70.336C95.8173 67.968 97.3533 66.64 99.7053 66.64C101.993 66.64 103.561 68.144 103.129 70.4L102.329 74.464C101.849 76.976 100.281 78.16 98.0733 78.16ZM99.5293 68.32C98.3453 68.32 97.5773 69.136 97.3373 70.4L96.5533 74.416C96.3133 75.696 96.8893 76.48 98.2173 76.48C99.3853 76.48 100.121 75.664 100.361 74.416L101.145 70.416C101.385 69.136 100.857 68.32 99.5293 68.32Z" fill="#444444"/>
<path d="M123.954 33.8H114.404L108.904 62H101.104L106.604 33.8H96.8043L98.1043 27H125.254L123.954 33.8Z" fill="#444444"/>
<path d="M58.8117 62L65.6117 27H73.4117L67.9117 55.2H82.3617L81.0617 62H58.8117ZM84.2531 62L91.0531 27H98.8531L92.0531 62H84.2531Z" fill="#444444"/>
<path d="M15.525 62.5C6.975 62.5 2.225 57.25 3.775 49.35L5.675 39.5C7.325 31.05 12.575 26.5 19.975 26.5C27.975 26.5 32.125 31.2 31.525 38H26.575C26.925 33.35 24.825 30.75 19.875 30.75C14.325 30.75 11.725 34.25 10.675 39.6L8.775 49.45C7.725 54.8 10.225 58.25 15.725 58.25C20.275 58.25 22.875 55.9 24.225 51H29.225C27.375 58.35 22.775 62.5 15.525 62.5ZM45.6902 30.75C41.5402 30.75 39.6902 32.6 39.1902 35.3C38.5902 38.4 39.8402 39.6 43.5402 41.1L48.3902 43.2C53.4402 45.3 55.0402 48.7 54.0402 53.7C52.9402 59.15 49.1402 62.5 41.8902 62.5C33.8902 62.5 29.3402 58.95 29.9402 51.85H34.9402C34.7402 56.2 36.8402 58.25 41.8902 58.25C45.9402 58.25 48.0902 56.6 48.7402 53.2C49.2902 50.15 48.3902 48.5 44.1902 46.8L40.0902 45.15C35.2902 43.2 32.9902 40.3 33.9902 34.95C34.8402 30.15 38.7902 26.5 45.8402 26.5C53.4902 26.5 57.3402 30.35 56.3902 37.2H51.4402C51.9902 32.85 50.2402 30.75 45.6902 30.75Z" fill="#444444"/>
<defs>
<linearGradient id="paint0_linear_54_2" x1="121.531" y1="64" x2="149.719" y2="6.05198" gradientUnits="userSpaceOnUse">
<stop offset="0.196169" stop-color="#444444"/>
<stop offset="0.664938" stop-color="#FF8A00"/>
<stop offset="1" stop-color="#FFC700"/>
</linearGradient>
</defs>
</svg>
