<svg width="176" height="93" viewBox="0 0 176 93" fill="none" xmlns="http://www.w3.org/2000/svg">
<path d="M124.112 90.5H121.888C120.167 90.5 118.671 89.3185 118.273 87.6443C118.134 87.0605 118.576 86.5 119.176 86.5H126.824C127.424 86.5 127.867 87.0605 127.728 87.6443C127.329 89.3185 125.833 90.5 124.112 90.5Z" fill="#444444"/>
<path d="M114.749 83.3714L113.549 80.3714C113.286 79.7145 113.77 79 114.477 79H132.523C133.231 79 133.714 79.7145 133.452 80.3714L132.252 83.3714C132.1 83.751 131.731 84 131.322 84H115.678C115.269 84 114.901 83.751 114.749 83.3714Z" fill="#444444"/>
<path d="M86.0994 9.67184L99.4305 19.6395L102.792 16.1021L89.4611 6.13436L86.0994 9.67184Z" fill="#FF9401"/>
<path d="M100.133 6.70345L102.346 14.278L107.074 13.18L104.861 5.6054L100.133 6.70345Z" fill="#FF9401"/>
<path d="M111 72.548H135.241C135.763 72.548 136.197 72.1474 136.238 71.6277L137.198 59.6237C137.384 57.2989 137.976 55.0245 138.945 52.9034L143.964 41.9254C146.506 36.3638 146.297 29.9323 143.397 24.548V24.548V24.548C140.563 19.2832 135.066 16 129.086 16H120.5C109.454 16 100.5 24.9543 100.5 36V37" stroke="url(#paint0_linear_37_3)" stroke-width="5"/>
<path d="M11.89 32V17.3H13.528V30.572H20.542V32H11.89ZM22.1526 19.757C21.5016 19.757 20.9976 19.295 20.9976 18.686C20.9976 18.077 21.5016 17.615 22.1526 17.615C22.8456 17.615 23.3286 18.077 23.3286 18.686C23.3286 19.295 22.8456 19.757 22.1526 19.757ZM21.3336 32V21.752H22.9926V32H21.3336ZM32.131 32L28.687 27.17L26.944 29.144V32H25.285V16.67H26.944V27.002L31.606 21.752H33.475L29.779 25.931L34.168 32H32.131ZM42.447 28.934C42.216 31.055 40.641 32.21 38.31 32.21C35.706 32.21 33.963 30.677 33.963 27.674V26.078C33.963 23.075 35.685 21.542 38.331 21.542C40.872 21.542 42.51 23.096 42.51 26.12V27.065H35.664C35.664 27.401 35.685 27.737 35.706 28.052C35.79 29.774 36.63 30.824 38.394 30.824C38.562 30.824 38.709 30.824 38.856 30.803C40.053 30.656 40.725 30.005 40.872 28.934H42.447ZM35.664 25.868L35.79 26.015H40.956C40.872 23.873 40.095 22.907 38.331 22.907C36.525 22.907 35.685 24.062 35.664 25.868ZM48.7507 32V17.3H50.3887V32H48.7507ZM52.8418 21.815H51.8968L52.6738 17.3H54.4378L52.8418 21.815ZM55.7698 26.162V32H54.1108V21.752H55.7698V23.705C56.3998 22.256 57.5968 21.542 59.0458 21.542C60.6838 21.542 61.7338 22.256 62.1118 23.726C62.7838 22.277 64.0438 21.542 65.5978 21.542C67.7188 21.542 68.8738 22.718 68.8738 25.196V32H67.2148V25.532C67.2148 23.831 66.5848 22.97 65.0518 22.97C63.5398 22.97 62.3218 24.146 62.3218 26.162V32H60.6628V25.532C60.6628 23.831 60.0328 22.97 58.4998 22.97C56.9878 22.97 55.7698 24.146 55.7698 26.162ZM77.2968 17.3H78.7668V32H77.1288V18.854L74.0418 19.862V18.434L77.2968 17.3ZM85.987 32.21C83.005 32.21 81.283 30.551 81.283 27.632V21.689C81.283 18.77 83.005 17.09 85.987 17.09C89.011 17.09 90.733 18.749 90.733 21.689V27.611C90.733 30.551 89.011 32.21 85.987 32.21ZM85.987 18.518C83.887 18.518 82.963 19.778 82.963 21.71V27.611C82.963 29.543 83.887 30.782 85.987 30.782C88.129 30.782 89.053 29.522 89.053 27.611V21.689C89.053 19.757 88.129 18.518 85.987 18.518Z" fill="#818181"/>
<path d="M132.31 46.8H122.76L117.26 75H109.46L114.96 46.8H105.16L106.46 40H133.61L132.31 46.8Z" fill="#444444"/>
<path d="M63.1679 75L69.9679 40H77.7679L72.2679 68.2H86.7179L85.4179 75H63.1679ZM88.6093 75L95.4093 40H103.209L96.4093 75H88.6093Z" fill="#444444"/>
<path d="M18.9805 75.5C10.4305 75.5 5.68048 70.25 7.23048 62.35L9.13048 52.5C10.7805 44.05 16.0305 39.5 23.4305 39.5C31.4305 39.5 35.5805 44.2 34.9805 51H30.0305C30.3805 46.35 28.2805 43.75 23.3305 43.75C17.7805 43.75 15.1805 47.25 14.1305 52.6L12.2305 62.45C11.1805 67.8 13.6805 71.25 19.1805 71.25C23.7305 71.25 26.3305 68.9 27.6805 64H32.6805C30.8305 71.35 26.2305 75.5 18.9805 75.5ZM49.8957 43.75C45.7457 43.75 43.8957 45.6 43.3957 48.3C42.7957 51.4 44.0457 52.6 47.7457 54.1L52.5957 56.2C57.6457 58.3 59.2457 61.7 58.2457 66.7C57.1457 72.15 53.3457 75.5 46.0957 75.5C38.0957 75.5 33.5457 71.95 34.1457 64.85H39.1457C38.9457 69.2 41.0457 71.25 46.0957 71.25C50.1457 71.25 52.2957 69.6 52.9457 66.2C53.4957 63.15 52.5957 61.5 48.3957 59.8L44.2957 58.15C39.4957 56.2 37.1957 53.3 38.1957 47.95C39.0457 43.15 42.9957 39.5 50.0457 39.5C57.6957 39.5 61.5457 43.35 60.5957 50.2H55.6457C56.1957 45.85 54.4457 43.75 49.8957 43.75Z" fill="#444444"/>
<defs>
<linearGradient id="paint0_linear_37_3" x1="130" y1="77" x2="155.5" y2="16" gradientUnits="userSpaceOnUse">
<stop offset="0.196169" stop-color="#444444"/>
<stop offset="0.664938" stop-color="#FF8A00"/>
<stop offset="1" stop-color="#FFC700"/>
</linearGradient>
</defs>
</svg>
