<svg width="118" height="83" viewBox="0 0 118 83" fill="none" xmlns="http://www.w3.org/2000/svg">
<path d="M86.2873 73.6759L86.2004 73.169C86.0957 72.5581 86.5662 72 87.186 72H93.814C94.4338 72 94.9043 72.5581 94.7996 73.169L94.7127 73.6759C94.3835 75.5962 92.7185 77 90.7702 77H90.2298C88.2815 77 86.6165 75.5962 86.2873 73.6759Z" fill="#8E5F29"/>
<path d="M83.5071 69.2747L82.3642 65.2747C82.1817 64.6359 82.6614 64 83.3257 64H98.6743C99.3386 64 99.8183 64.6359 99.6358 65.2747L98.4929 69.2747C98.3703 69.704 97.9763 70 97.5298 70H84.4702C84.0237 70 83.6297 69.704 83.5071 69.2747Z" fill="#8E5F29"/>
<path d="M76.1011 11.2638L69.6184 4.17688" stroke="#EB8208" stroke-width="6"/>
<path d="M75.5997 18.2282L57.5215 12.967" stroke="#EB8208" stroke-width="6"/>
<path d="M90.5 56L89 62H97.5V56H90.5Z" fill="#8E5F29"/>
<path d="M92 59H99.6701C100.151 59 100.564 58.6573 100.653 58.1843L102.984 45.7501C103.324 43.9409 104.074 42.2341 105.179 40.7616L110.417 33.7772C111.779 31.9615 112.609 29.803 112.814 27.5428L113.121 24.1687C113.368 21.4564 112.767 18.7344 111.403 16.3775V16.3775C109.274 12.7013 105.463 10.3188 101.226 10.0161L96.679 9.69136C94.9018 9.56441 93.1157 9.6876 91.3727 10.0573L90.3388 10.2766C83.4671 11.7343 79.3591 18.8096 81.5001 25.5V25.5" stroke="url(#paint0_linear_68_456)" stroke-width="6"/>
<path d="M61.1746 62H43.4746L51.3246 28H58.2246L51.7746 56H62.5246L61.1746 62ZM63.3184 62L71.1684 28H78.0684L70.2184 62H63.3184ZM79.0973 34L80.4973 28H102.397L100.997 34H93.4473L86.9973 62H80.0973L86.5473 34H79.0973Z" fill="#444444"/>
<path d="M20.6034 56.54L20.7234 61.06C19.2834 61.3533 17.9368 61.58 16.6834 61.74C15.4301 61.9 14.2301 61.98 13.0834 61.98C10.8168 61.98 9.00344 61.7 7.64344 61.14C6.28344 60.58 5.21677 59.6867 4.44344 58.46C3.6701 57.2333 3.13677 55.7933 2.84344 54.14C2.5501 52.4867 2.40344 50.4067 2.40344 47.9C2.40344 45.26 2.56344 43.0467 2.88344 41.26C3.2301 39.4733 3.80344 38.0333 4.60344 36.94C5.40344 35.82 6.4701 35.02 7.80344 34.54C9.13677 34.06 10.8034 33.82 12.8034 33.82C15.1234 33.82 17.7768 34.18 20.7634 34.9L20.6034 39.3C17.9634 38.9 15.7768 38.7 14.0434 38.7C13.1634 38.7 12.4168 38.7533 11.8034 38.86C11.2168 38.9667 10.7101 39.1533 10.2834 39.42C9.88344 39.66 9.5501 40.0067 9.28344 40.46C9.04344 40.8867 8.8301 41.42 8.64344 42.06C8.45677 42.7267 8.3101 43.6067 8.20344 44.7C8.12344 45.7933 8.08344 47.14 8.08344 48.74C8.08344 50.3133 8.16344 51.6333 8.32344 52.7C8.48344 53.7667 8.76344 54.6333 9.16344 55.3C9.5901 55.94 10.1634 56.4067 10.8834 56.7C11.6034 56.9667 12.5101 57.1 13.6034 57.1C14.7234 57.1 15.8568 57.06 17.0034 56.98C18.1501 56.8733 19.3501 56.7267 20.6034 56.54ZM32.5622 38.62C29.6555 38.62 28.2022 39.58 28.2022 41.5C28.2022 42.3533 28.5622 43.0067 29.2822 43.46C29.6555 43.6733 30.2555 43.9533 31.0822 44.3C31.9089 44.62 33.0022 44.9933 34.3622 45.42C35.6955 45.8467 36.8155 46.2867 37.7222 46.74C38.6289 47.1933 39.3622 47.7267 39.9222 48.34C40.4822 48.9267 40.8822 49.62 41.1222 50.42C41.3889 51.22 41.5222 52.18 41.5222 53.3C41.5222 54.74 41.2955 56.0067 40.8422 57.1C40.3889 58.1667 39.7489 59.06 38.9222 59.78C38.0955 60.5 37.1089 61.0467 35.9622 61.42C34.8155 61.7933 33.5355 61.98 32.1222 61.98C30.0422 61.98 27.4955 61.66 24.4822 61.02L23.0422 60.74L23.6022 56.46C27.1755 56.94 29.9089 57.18 31.8022 57.18C34.6289 57.18 36.0422 56.0067 36.0422 53.66C36.0422 52.8067 35.7222 52.14 35.0822 51.66C34.3889 51.18 33.0822 50.66 31.1622 50.1C29.6155 49.6467 28.2955 49.18 27.2022 48.7C26.1355 48.1933 25.2689 47.62 24.6022 46.98C23.9355 46.3133 23.4555 45.5667 23.1622 44.74C22.8689 43.9133 22.7222 42.9667 22.7222 41.9C22.7222 39.1533 23.5355 37.1267 25.1622 35.82C26.8155 34.4867 29.0955 33.82 32.0022 33.82C32.9889 33.82 34.1089 33.8867 35.3622 34.02C36.6155 34.1533 38.0022 34.3533 39.5222 34.62L40.9622 34.9L40.5222 39.26C38.6289 39.0467 37.0155 38.8867 35.6822 38.78C34.3755 38.6733 33.3355 38.62 32.5622 38.62Z" fill="url(#paint1_linear_68_456)"/>
<path d="M69.885 68.78V80H67.998V70.922L65.363 72.622L64.496 71.211L68.151 68.78H69.885ZM72.7167 69.97C73.4307 69.052 74.496 68.593 75.9127 68.593C77.3294 68.593 78.389 69.0464 79.0917 69.953C79.7944 70.8597 80.1457 72.3614 80.1457 74.458C80.1457 76.5434 79.7887 78.0224 79.0747 78.895C78.372 79.7564 77.3124 80.187 75.8957 80.187C74.4904 80.187 73.4307 79.7564 72.7167 78.895C72.014 78.0337 71.6627 76.5604 71.6627 74.475C71.6627 72.3784 72.014 70.8767 72.7167 69.97ZM77.6637 71.177C77.3124 70.5537 76.7287 70.242 75.9127 70.242C75.0967 70.242 74.5074 70.5537 74.1447 71.177C73.7934 71.789 73.6177 72.8714 73.6177 74.424C73.6177 75.9767 73.799 77.0534 74.1617 77.654C74.5357 78.2434 75.1194 78.538 75.9127 78.538C76.7174 78.538 77.2954 78.2434 77.6467 77.654C78.0094 77.0534 78.1907 75.9767 78.1907 74.424C78.1907 72.8714 78.015 71.789 77.6637 71.177Z" fill="#8C8C8C"/>
<path d="M43.343 80V68.355H45.23V80H43.343ZM46.5994 72.231L47.3644 68.236H49.3024L48.0104 72.231H46.5994ZM51.3812 80H49.5282V71.5H51.3642V72.027C52.1689 71.551 52.9055 71.313 53.5742 71.313C54.5602 71.313 55.2799 71.5907 55.7332 72.146C56.7645 71.5907 57.7902 71.313 58.8102 71.313C59.8302 71.313 60.5499 71.6304 60.9692 72.265C61.3885 72.8884 61.5982 73.948 61.5982 75.444V80H59.7622V75.495C59.7622 74.577 59.6659 73.9254 59.4732 73.54C59.2919 73.1547 58.9065 72.962 58.3172 72.962C57.8072 72.962 57.2575 73.0754 56.6682 73.302L56.3792 73.421C56.4699 73.6477 56.5152 74.373 56.5152 75.597V80H54.6792V75.631C54.6792 74.6224 54.5885 73.9254 54.4072 73.54C54.2259 73.1547 53.8292 72.962 53.2172 72.962C52.6505 72.962 52.1235 73.0754 51.6362 73.302L51.3812 73.404V80Z" fill="#8C8C8C"/>
<path d="M19.0771 80H12.5491V68.355H14.4361V78.317H19.0771V80ZM20.3964 80V71.5H22.2494V80H20.3964ZM20.3964 70.055V68.1H22.2494V70.055H20.3964ZM26.35 80H24.497V67.964H26.35V74.917L27.404 74.815L29.41 71.5H31.484L29.036 75.478L31.62 80H29.529L27.455 76.413L26.35 76.532V80ZM38.8498 78.47L39.3258 78.419L39.3598 79.796C38.0678 80.0567 36.9231 80.187 35.9258 80.187C34.6678 80.187 33.7611 79.8414 33.2058 79.15C32.6618 78.4587 32.3898 77.3537 32.3898 75.835C32.3898 72.8204 33.6194 71.313 36.0788 71.313C38.4588 71.313 39.6488 72.6107 39.6488 75.206L39.5298 76.532H34.2598C34.2711 77.2347 34.4241 77.7504 34.7188 78.079C35.0134 78.4077 35.5631 78.572 36.3678 78.572C37.1724 78.572 37.9998 78.538 38.8498 78.47ZM37.8298 75.104C37.8298 74.2654 37.6938 73.6817 37.4218 73.353C37.1611 73.013 36.7134 72.843 36.0788 72.843C35.4441 72.843 34.9794 73.0187 34.6848 73.37C34.4014 73.7214 34.2541 74.2994 34.2428 75.104H37.8298Z" fill="#8C8C8C"/>
<path d="M9.434 71.944L4.884 74.604L9.434 77.208L8.426 78.79L2.98 75.402V73.82L8.454 70.418L9.434 71.944ZM98.8004 79.77L104.68 67.562L106.388 68.36L100.522 80.568L98.8004 79.77ZM113.943 73.806V75.402L108.483 78.79L107.489 77.278L112.025 74.604L107.489 72.014L108.469 70.418L113.943 73.806Z" fill="#8C8C8C"/>
<defs>
<linearGradient id="paint0_linear_68_456" x1="79.5001" y1="81.5" x2="127.229" y2="-3.10747" gradientUnits="userSpaceOnUse">
<stop stop-color="#444444"/>
<stop offset="0.658464" stop-color="#FF8A00"/>
<stop offset="1" stop-color="#FFC700"/>
</linearGradient>
<linearGradient id="paint1_linear_68_456" x1="20" y1="31.5" x2="18" y2="65.5" gradientUnits="userSpaceOnUse">
<stop stop-color="#444444"/>
<stop offset="1" stop-color="#8C8C8C"/>
</linearGradient>
</defs>
</svg>
