<svg width="512" height="512" viewBox="0 0 512 512" fill="none" xmlns="http://www.w3.org/2000/svg">
<rect width="512" height="512" fill="#434343"/>
<path d="M346.724 203.25L297.787 190.303" stroke="#FF7263" stroke-width="19"/>
<path d="M345.866 183.315L329.993 163" stroke="#FF7263" stroke-width="19"/>
<path d="M407.523 306.151H437.102L439.791 280.68L444.137 260.751C445.707 253.546 448.619 246.698 452.723 240.562L458.859 231.383C463.083 225.066 465.337 217.644 465.337 210.051C465.337 203.617 463.718 197.286 460.628 191.637L460.182 190.822C458.251 187.292 455.796 184.031 452.946 181.188C445.387 173.652 435.225 169.118 424.547 168.585L414.245 168.072L400.803 168.777C392.9 169.192 385.279 171.849 378.836 176.437L378.441 176.718C372.829 180.716 368.357 186.103 365.466 192.348C363.057 197.551 361.809 203.213 361.809 208.944V210.97" stroke="url(#paint0_linear_207_2)" stroke-width="19"/>
<path d="M218.244 314.195L233.437 218.344H269.335L258.445 286.847H290.847L286.545 314.195H218.244ZM295.248 314.195L310.441 218.344H346.608L331.415 314.195H295.248ZM361.75 314.195L372.506 245.691H349.246L353.683 218.344H436.236L431.799 245.691H408.539L397.783 314.195H361.75Z" fill="#ECECEC"/>
<path d="M91.9849 314.168C62.4701 314.168 46 295.381 46 266.478V265.427C46 237.181 65.5007 217.475 91.7213 217.475C113.33 217.475 130.064 228.248 132.172 250.319H114.384C112.408 237.838 105.425 231.401 91.8531 231.401C75.2511 231.401 64.4466 244.276 64.4466 265.296V266.347C64.4466 287.499 74.5923 299.979 91.9849 299.979C105.029 299.979 114.253 293.411 116.097 280.142H133.226C130.459 302.738 114.384 314.168 91.9849 314.168ZM177.131 314.168C151.438 314.168 140.633 301.425 139.315 283.689H156.181C157.367 293.148 161.188 301.031 177.131 301.031C187.54 301.031 194.919 295.25 194.919 286.579C194.919 277.908 190.571 274.624 175.287 272.128C152.755 269.106 142.082 262.274 142.082 244.67C142.082 229.299 155.259 217.738 174.891 217.738C195.183 217.738 207.305 226.934 209.149 244.933H193.074C191.362 235.079 185.696 230.875 174.891 230.875C164.219 230.875 158.685 235.999 158.685 243.225C158.685 250.845 161.847 254.654 178.185 257.019C200.321 260.041 211.785 266.347 211.785 285.134C211.785 301.425 197.95 314.168 177.131 314.168Z" fill="#C4C4C4"/>
<defs>
<linearGradient id="paint0_linear_207_2" x1="476.004" y1="156.444" x2="365.619" y2="326.986" gradientUnits="userSpaceOnUse">
<stop stop-color="#FF7263"/>
<stop offset="0.141308" stop-color="#FFC2BC"/>
<stop offset="0.370484" stop-color="#FF7263"/>
<stop offset="1" stop-color="#FF7263"/>
</linearGradient>
</defs>
</svg>
